<?xml version="1.0" encoding="UTF-8"?>
<!DOCTYPE svg PUBLIC "-//W3C//DTD SVG 1.1//EN" "http://www.w3.org/Graphics/SVG/1.1/DTD/svg11.dtd">
<svg xmlns="http://www.w3.org/2000/svg" version="1.1" width="228px" height="221px" style="shape-rendering:geometricPrecision; text-rendering:geometricPrecision; image-rendering:optimizeQuality; fill-rule:evenodd; clip-rule:evenodd" xmlns:xlink="http://www.w3.org/1999/xlink">
<g><path style="opacity:0.027" fill="#4a494a" d="M 96.5,53.5 C 94.6214,53.6068 94.2881,53.1068 95.5,52C 101.333,48.1667 107.167,44.3333 113,40.5C 115.3,36.1865 117.633,31.8532 120,27.5C 123.981,24.6865 127.481,21.3532 130.5,17.5C 127.758,16.7825 125.091,17.2825 122.5,19C 119.249,23.9726 114.583,26.9726 108.5,28C 107.044,29.7448 105.711,31.5781 104.5,33.5C 99.1667,35.5 93.8333,37.5 88.5,39.5C 87.6113,42.3888 86.278,45.0554 84.5,47.5C 85.4279,48.7678 85.5946,50.1011 85,51.5C 77.8427,55.4166 71.1761,60.0832 65,65.5C 63.908,68.0444 63.2414,70.7111 63,73.5C 61.0407,75.788 58.5407,77.1213 55.5,77.5C 54.3882,84.5519 51.0549,90.3852 45.5,95C 44.552,95.4828 43.552,95.6495 42.5,95.5C 40.2063,99.792 38.7063,104.459 38,109.5C 34.2191,113.109 30.7191,116.776 27.5,120.5C 29.3239,116.161 32.1573,112.494 36,109.5C 36.7767,104.024 38.61,99.0239 41.5,94.5C 45.7148,93.1217 48.8815,90.455 51,86.5C 52.7863,83.5401 53.4529,80.5401 53,77.5C 55.6667,76.1667 58.3333,74.8333 61,73.5C 61.5362,69.5492 63.0362,66.0492 65.5,63C 70.9388,58.533 76.7722,54.6996 83,51.5C 83.5946,50.1011 83.4279,48.7678 82.5,47.5C 84.5639,44.5388 86.2305,41.3721 87.5,38C 92.9469,36.3049 98.2802,34.3049 103.5,32C 106.517,26.6358 111.183,23.6358 117.5,23C 120.465,17.5087 125.131,14.5087 131.5,14C 134.833,12 138.167,10 141.5,8C 142.635,7.25061 143.635,7.41728 144.5,8.5C 136.743,14.3732 129.409,20.7065 122.5,27.5C 119.22,32.5088 116.22,37.6755 113.5,43C 107.47,46.0097 101.804,49.5097 96.5,53.5 Z"/></g>
<g><path style="opacity:1" fill="#656565" d="M 96.5,53.5 C 95.7095,54.4013 94.7095,55.0679 93.5,55.5C 93.19,54.2617 92.69,54.2617 92,55.5C 89.5352,58.8139 87.8685,62.1472 87,65.5C 83.6966,67.5945 81.1966,70.4278 79.5,74C 76.2801,75.7771 72.9467,77.2771 69.5,78.5C 69.054,81.2765 68.054,83.7765 66.5,86C 63.7937,87.5475 60.9603,88.7142 58,89.5C 57.6667,91.1667 57.3333,92.8333 57,94.5C 55.0448,95.4533 53.3782,96.7866 52,98.5C 51.4837,101.034 50.317,103.2 48.5,105C 48.7284,105.399 49.0618,105.565 49.5,105.5C 49.1667,106.5 48.5,107.167 47.5,107.5C 47.6309,106.624 47.2975,105.957 46.5,105.5C 42.2506,107.964 39.4173,111.631 38,116.5C 36.5,118 35,119.5 33.5,121C 34.0944,121.464 34.7611,121.631 35.5,121.5C 34.7095,122.401 33.7095,123.068 32.5,123.5C 32.5654,123.062 32.3988,122.728 32,122.5C 31,123.5 30,124.5 29,125.5C 28.79,123.942 28.29,122.609 27.5,121.5C 27.5,121.167 27.5,120.833 27.5,120.5C 30.7191,116.776 34.2191,113.109 38,109.5C 38.7063,104.459 40.2063,99.792 42.5,95.5C 43.552,95.6495 44.552,95.4828 45.5,95C 51.0549,90.3852 54.3882,84.5519 55.5,77.5C 58.5407,77.1213 61.0407,75.788 63,73.5C 63.2414,70.7111 63.908,68.0444 65,65.5C 71.1761,60.0832 77.8427,55.4166 85,51.5C 85.5946,50.1011 85.4279,48.7678 84.5,47.5C 86.278,45.0554 87.6113,42.3888 88.5,39.5C 93.8333,37.5 99.1667,35.5 104.5,33.5C 105.711,31.5781 107.044,29.7448 108.5,28C 114.583,26.9726 119.249,23.9726 122.5,19C 125.091,17.2825 127.758,16.7825 130.5,17.5C 127.481,21.3532 123.981,24.6865 120,27.5C 117.633,31.8532 115.3,36.1865 113,40.5C 107.167,44.3333 101.333,48.1667 95.5,52C 94.2881,53.1068 94.6214,53.6068 96.5,53.5 Z"/></g>
<g><path style="opacity:0.745" fill="#464646" d="M 158.5,54.5 C 158.062,54.5654 157.728,54.3988 157.5,54C 158.931,53.5348 160.097,52.7014 161,51.5C 161.241,48.7111 161.908,46.0444 163,43.5C 169.093,39.4113 174.593,34.578 179.5,29C 173.199,31.7628 166.533,33.7628 159.5,35C 158.308,36.9124 157.308,38.9124 156.5,41C 151.194,41.2428 146.194,42.5762 141.5,45C 137.643,51.1947 132.309,55.528 125.5,58C 124.415,60.172 123.081,62.172 121.5,64C 115.545,67.649 109.212,70.3156 102.5,72C 102.167,72.3333 101.833,72.6667 101.5,73C 103.886,75.7065 104.052,78.5398 102,81.5C 97.3815,84.4504 93.0482,87.7838 89,91.5C 83.6789,98.9823 77.8456,105.982 71.5,112.5C 79.0759,99.9248 88.7426,89.2581 100.5,80.5C 101.773,78.0162 101.773,75.5162 100.5,73C 101.101,71.395 102.101,70.0616 103.5,69C 106.471,68.2057 109.471,67.539 112.5,67C 114.745,64.9125 117.412,63.5792 120.5,63C 122.37,57.7961 126.037,54.7961 131.5,54C 134.934,49.8104 138.6,45.8104 142.5,42C 146.855,40.896 151.188,39.7293 155.5,38.5C 156.128,36.7419 157.128,35.2419 158.5,34C 170.687,30.7405 182.02,25.5738 192.5,18.5C 193.731,19.6507 193.731,20.8173 192.5,22C 188.5,24.6667 184.5,27.3333 180.5,30C 175.593,35.578 170.093,40.4113 164,44.5C 163.846,48.0979 162.846,51.4313 161,54.5C 160.23,55.5981 159.397,55.5981 158.5,54.5 Z"/></g>
<g><path style="opacity:1" fill="#656565" d="M 158.5,54.5 C 158.179,56.0481 157.179,56.7148 155.5,56.5C 156.85,55.3501 156.684,54.6834 155,54.5C 148.491,55.9962 142.824,58.9962 138,63.5C 135.614,68.4394 133.114,73.2727 130.5,78C 127.833,79.6667 125.167,81.3333 122.5,83C 113.89,84.2916 109.39,89.4582 109,98.5C 102.934,105.565 95.9338,111.565 88,116.5C 85.1357,129.36 77.469,137.694 65,141.5C 61.8353,147.834 58.1687,153.834 54,159.5C 52.8555,162.08 52.0222,164.747 51.5,167.5C 44.6534,169.179 40.8201,173.513 40,180.5C 39.3333,181.167 38.6667,181.833 38,182.5C 37.8301,180.155 38.1635,177.821 39,175.5C 40.9203,172.661 42.5869,169.661 44,166.5C 46,159.833 48,153.167 50,146.5C 54.59,143.247 57.59,138.914 59,133.5C 61.4622,132.35 63.7955,131.017 66,129.5C 65.6315,126.21 65.6315,122.877 66,119.5C 68.3333,117.469 70.1666,115.135 71.5,112.5C 77.8456,105.982 83.6789,98.9823 89,91.5C 93.0482,87.7838 97.3815,84.4504 102,81.5C 104.052,78.5398 103.886,75.7065 101.5,73C 101.833,72.6667 102.167,72.3333 102.5,72C 109.212,70.3156 115.545,67.649 121.5,64C 123.081,62.172 124.415,60.172 125.5,58C 132.309,55.528 137.643,51.1947 141.5,45C 146.194,42.5762 151.194,41.2428 156.5,41C 157.308,38.9124 158.308,36.9124 159.5,35C 166.533,33.7628 173.199,31.7628 179.5,29C 174.593,34.578 169.093,39.4113 163,43.5C 161.908,46.0444 161.241,48.7111 161,51.5C 160.097,52.7014 158.931,53.5348 157.5,54C 157.728,54.3988 158.062,54.5654 158.5,54.5 Z"/></g>
<g><path style="opacity:0.831" fill="#484848" d="M 193.5,60.5 C 191.766,62.5549 189.433,63.8882 186.5,64.5C 184.48,68.0192 181.48,70.1859 177.5,71C 176.257,72.1545 175.257,73.4878 174.5,75C 169.173,74.3825 164.84,76.0491 161.5,80C 153.63,79.5408 148.463,83.0408 146,90.5C 145.31,91.7383 144.81,91.7383 144.5,90.5C 145.556,85.5581 148.222,81.7248 152.5,79C 155.167,79 157.833,79 160.5,79C 163.321,74.0908 167.654,72.0908 173.5,73C 175.527,70.3195 178.193,68.6528 181.5,68C 184.067,63.216 188.067,60.716 193.5,60.5 Z"/></g>
<g><path style="opacity:1" fill="#646464" d="M 170.5,84.5 C 166.155,90.3568 161.155,95.8568 155.5,101C 152.447,101.179 149.447,101.679 146.5,102.5C 143.511,107.468 141.511,112.802 140.5,118.5C 139.205,119.098 137.872,119.598 136.5,120C 137.416,120.278 138.082,120.778 138.5,121.5C 136.955,122.23 136.122,123.563 136,125.5C 135.329,126.252 134.496,126.586 133.5,126.5C 130.996,128.144 128.329,129.644 125.5,131C 124.707,132.085 124.04,133.252 123.5,134.5C 120.743,135.029 118.243,136.029 116,137.5C 112.067,143.702 108.4,150.035 105,156.5C 102.408,159.762 99.2413,162.262 95.5,164C 89.2275,169.043 85.3942,175.543 84,183.5C 80.7026,185.795 77.7026,188.462 75,191.5C 73.8605,195.112 72.1939,198.446 70,201.5C 72.4241,194.798 74.0908,187.798 75,180.5C 77.9749,175.53 81.6415,171.196 86,167.5C 86.3392,165.166 86.1725,162.832 85.5,160.5C 85.322,156.177 87.1553,153.177 91,151.5C 91.7065,149.919 92.5399,148.419 93.5,147C 100.619,145.223 103.785,140.723 103,133.5C 106.765,129.226 110.932,125.559 115.5,122.5C 116.693,119.486 118.526,116.819 121,114.5C 121.096,111.549 121.929,108.882 123.5,106.5C 128.603,101.782 134.603,98.9487 141.5,98C 143.363,96.2387 144.03,94.4054 143.5,92.5C 143.328,91.5084 143.662,90.8417 144.5,90.5C 144.81,91.7383 145.31,91.7383 146,90.5C 148.463,83.0408 153.63,79.5408 161.5,80C 164.84,76.0491 169.173,74.3825 174.5,75C 175.257,73.4878 176.257,72.1545 177.5,71C 181.48,70.1859 184.48,68.0192 186.5,64.5C 189.433,63.8882 191.766,62.5549 193.5,60.5C 194.609,60.4431 195.609,60.1098 196.5,59.5C 196.435,59.9382 196.601,60.2716 197,60.5C 201.444,57.9918 201.611,58.4918 197.5,62C 193.888,63.1395 190.554,64.8061 187.5,67C 182.336,73.3301 176.67,79.1634 170.5,84.5 Z"/></g>
<g><path style="opacity:0.118" fill="#424242" d="M 170.5,84.5 C 176.67,79.1634 182.336,73.3301 187.5,67C 190.554,64.8061 193.888,63.1395 197.5,62C 201.611,58.4918 201.444,57.9918 197,60.5C 196.601,60.2716 196.435,59.9382 196.5,59.5C 198.486,57.2055 200.986,55.5388 204,54.5C 204.692,55.0253 205.192,55.6919 205.5,56.5C 202.683,58.8167 200.016,61.3167 197.5,64C 193.619,64.6072 190.286,66.2738 187.5,69C 183.534,73.9675 179.201,78.6342 174.5,83C 173.255,83.7914 171.922,84.2914 170.5,84.5 Z"/></g>
<g><path style="opacity:0.638" fill="#4c4c4c" d="M 93.5,55.5 C 92.2317,61.1663 89.3984,65.8329 85,69.5C 83.4412,71.2166 82.6079,73.2166 82.5,75.5C 78.2778,76.4439 74.2778,77.7772 70.5,79.5C 70.0209,85.6503 66.6875,89.317 60.5,90.5C 59.9786,94.5199 57.8119,97.1865 54,98.5C 53.0691,100.459 52.2357,102.459 51.5,104.5C 51.0431,105.298 50.3764,105.631 49.5,105.5C 49.0618,105.565 48.7284,105.399 48.5,105C 50.317,103.2 51.4837,101.034 52,98.5C 53.3782,96.7866 55.0448,95.4533 57,94.5C 57.3333,92.8333 57.6667,91.1667 58,89.5C 60.9603,88.7142 63.7937,87.5475 66.5,86C 68.054,83.7765 69.054,81.2765 69.5,78.5C 72.9467,77.2771 76.2801,75.7771 79.5,74C 81.1966,70.4278 83.6966,67.5945 87,65.5C 87.8685,62.1472 89.5352,58.8139 92,55.5C 92.69,54.2617 93.19,54.2617 93.5,55.5 Z"/></g>
<g><path style="opacity:0.404" fill="#424242" d="M 170.5,84.5 C 166.85,91.6612 161.85,97.8278 155.5,103C 152.774,103.182 150.107,103.682 147.5,104.5C 144.598,109.106 142.765,114.106 142,119.5C 140.887,120.305 139.721,120.972 138.5,121.5C 138.082,120.778 137.416,120.278 136.5,120C 137.872,119.598 139.205,119.098 140.5,118.5C 141.511,112.802 143.511,107.468 146.5,102.5C 149.447,101.679 152.447,101.179 155.5,101C 161.155,95.8568 166.155,90.3568 170.5,84.5 Z"/></g>
<g><path style="opacity:0.567" fill="#474747" d="M 154.5,151.5 C 153.761,151.631 153.094,151.464 152.5,151C 154.246,150.529 155.913,149.862 157.5,149C 160.396,145.439 163.896,142.606 168,140.5C 168.934,133.241 172.601,127.908 179,124.5C 180.626,122.083 182.126,119.583 183.5,117C 188.002,115.931 191.002,113.265 192.5,109C 192.167,108.5 191.833,108 191.5,107.5C 188.065,108.367 184.731,109.534 181.5,111C 179.5,113.667 177.5,116.333 175.5,119C 170.249,121.528 164.916,123.861 159.5,126C 156.322,131.355 152.655,136.355 148.5,141C 144.493,141.519 140.993,143.019 138,145.5C 137.007,149.442 136.34,153.442 136,157.5C 134.104,159.53 131.937,161.197 129.5,162.5C 127.705,168.279 124.705,173.279 120.5,177.5C 123.214,172.753 125.547,167.753 127.5,162.5C 129.524,160.642 131.691,158.975 134,157.5C 134.229,152.584 135.396,147.918 137.5,143.5C 140.865,141.323 144.532,139.823 148.5,139C 152.167,134 155.833,129 159.5,124C 163.77,122.182 168.103,120.515 172.5,119C 175.719,114.903 179.386,111.237 183.5,108C 186.007,107.907 188.174,107.074 190,105.5C 191.73,105.509 193.563,105.842 195.5,106.5C 194.129,112.038 190.796,115.871 185.5,118C 183.3,120.234 181.467,122.734 180,125.5C 173.861,129.056 170.361,134.39 169.5,141.5C 165.112,143.052 161.778,145.885 159.5,150C 157.975,151.009 156.308,151.509 154.5,151.5 Z"/></g>
<g><path style="opacity:0.443" fill="#484848" d="M 143.5,92.5 C 144.03,94.4054 143.363,96.2387 141.5,98C 134.603,98.9487 128.603,101.782 123.5,106.5C 121.929,108.882 121.096,111.549 121,114.5C 118.526,116.819 116.693,119.486 115.5,122.5C 115.006,118.473 116.506,115.473 120,113.5C 120.241,110.711 120.908,108.044 122,105.5C 127.535,101.149 133.702,97.9822 140.5,96C 141.636,94.8549 142.636,93.6883 143.5,92.5 Z"/></g>
<g><path style="opacity:0.463" fill="#4a4a4a" d="M 47.5,107.5 C 45.9557,107.703 44.6223,108.37 43.5,109.5C 41.8051,114.245 39.1384,118.245 35.5,121.5C 34.7611,121.631 34.0944,121.464 33.5,121C 35,119.5 36.5,118 38,116.5C 39.4173,111.631 42.2506,107.964 46.5,105.5C 47.2975,105.957 47.6309,106.624 47.5,107.5 Z"/></g>
<g><path style="opacity:0.441" fill="#474747" d="M 155.5,56.5 C 149.473,57.8386 144.139,60.5053 139.5,64.5C 136.563,77.3098 128.563,84.6432 115.5,86.5C 112.235,89.7909 110.735,93.7909 111,98.5C 105.255,105.745 98.4217,111.745 90.5,116.5C 86.8868,129.609 78.7201,138.276 66,142.5C 62.0983,150.637 57.9316,158.637 53.5,166.5C 53.0431,167.298 52.3764,167.631 51.5,167.5C 52.0222,164.747 52.8555,162.08 54,159.5C 58.1687,153.834 61.8353,147.834 65,141.5C 77.469,137.694 85.1357,129.36 88,116.5C 95.9338,111.565 102.934,105.565 109,98.5C 109.39,89.4582 113.89,84.2916 122.5,83C 125.167,81.3333 127.833,79.6667 130.5,78C 133.114,73.2727 135.614,68.4394 138,63.5C 142.824,58.9962 148.491,55.9962 155,54.5C 156.684,54.6834 156.85,55.3501 155.5,56.5 Z"/></g>
<g><path style="opacity:1" fill="#646464" d="M 154.5,151.5 C 153.71,152.401 152.71,153.068 151.5,153.5C 151.19,152.262 150.69,152.262 150,153.5C 145.571,158.695 141.905,164.361 139,170.5C 137.5,172 136,173.5 134.5,175C 129.626,178.362 124.793,181.862 120,185.5C 119.996,183.632 120.496,181.798 121.5,180C 121.43,179.235 121.097,178.735 120.5,178.5C 120.5,178.167 120.5,177.833 120.5,177.5C 124.705,173.279 127.705,168.279 129.5,162.5C 131.937,161.197 134.104,159.53 136,157.5C 136.34,153.442 137.007,149.442 138,145.5C 140.993,143.019 144.493,141.519 148.5,141C 152.655,136.355 156.322,131.355 159.5,126C 164.916,123.861 170.249,121.528 175.5,119C 177.5,116.333 179.5,113.667 181.5,111C 184.731,109.534 188.065,108.367 191.5,107.5C 191.833,108 192.167,108.5 192.5,109C 191.002,113.265 188.002,115.931 183.5,117C 182.126,119.583 180.626,122.083 179,124.5C 172.601,127.908 168.934,133.241 168,140.5C 163.896,142.606 160.396,145.439 157.5,149C 155.913,149.862 154.246,150.529 152.5,151C 153.094,151.464 153.761,151.631 154.5,151.5 Z"/></g>
<g><path style="opacity:0.655" fill="#434343" d="M 27.5,121.5 C 28.29,122.609 28.79,123.942 29,125.5C 30,124.5 31,123.5 32,122.5C 32.3988,122.728 32.5654,123.062 32.5,123.5C 26.2213,132.178 24.5547,131.512 27.5,121.5 Z"/></g>
<g><path style="opacity:0.6" fill="#464646" d="M 115.5,122.5 C 110.932,125.559 106.765,129.226 103,133.5C 103.785,140.723 100.619,145.223 93.5,147C 92.5399,148.419 91.7065,149.919 91,151.5C 87.1553,153.177 85.322,156.177 85.5,160.5C 86.1725,162.832 86.3392,165.166 86,167.5C 81.6415,171.196 77.9749,175.53 75,180.5C 74.0908,187.798 72.4241,194.798 70,201.5C 72.1939,198.446 73.8605,195.112 75,191.5C 77.7026,188.462 80.7026,185.795 84,183.5C 85.3942,175.543 89.2275,169.043 95.5,164C 99.2413,162.262 102.408,159.762 105,156.5C 108.4,150.035 112.067,143.702 116,137.5C 118.243,136.029 120.743,135.029 123.5,134.5C 124.04,133.252 124.707,132.085 125.5,131C 128.329,129.644 130.996,128.144 133.5,126.5C 130.276,129.812 126.942,133.145 123.5,136.5C 121.291,137.106 119.124,137.773 117,138.5C 114.698,142.146 112.364,145.813 110,149.5C 109.027,151.392 108.36,153.392 108,155.5C 103.284,160.883 97.951,165.55 92,169.5C 88.484,173.871 86.3173,178.871 85.5,184.5C 78.9168,187.92 74.7502,193.253 73,200.5C 68.9121,203.756 65.7454,207.756 63.5,212.5C 63.1667,212 62.8333,211.5 62.5,211C 65.8989,205.156 68.7323,198.99 71,192.5C 71.6026,181.961 75.9359,173.295 84,166.5C 84.4188,164.32 84.2521,162.154 83.5,160C 83.8508,157.411 84.5175,154.911 85.5,152.5C 86.7946,151.902 88.1279,151.402 89.5,151C 90.13,149.108 91.13,147.441 92.5,146C 95.4185,144.291 98.2518,142.458 101,140.5C 101.18,137.044 101.847,133.711 103,130.5C 105.833,129 108,126.833 109.5,124C 111.345,122.872 113.345,122.372 115.5,122.5 Z"/></g>
<g><path style="opacity:0.808" fill="#454545" d="M 71.5,112.5 C 70.1666,115.135 68.3333,117.469 66,119.5C 65.6315,122.877 65.6315,126.21 66,129.5C 63.7955,131.017 61.4622,132.35 59,133.5C 57.59,138.914 54.59,143.247 50,146.5C 48,153.167 46,159.833 44,166.5C 42.5869,169.661 40.9203,172.661 39,175.5C 38.1635,177.821 37.8301,180.155 38,182.5C 38.6667,181.833 39.3333,181.167 40,180.5C 40.8201,173.513 44.6534,169.179 51.5,167.5C 48.8292,169.934 45.9958,172.267 43,174.5C 42.6667,176.5 42.3333,178.5 42,180.5C 40.2567,182.321 38.7567,184.321 37.5,186.5C 36.5,187.833 35.5,187.833 34.5,186.5C 39.9053,173.451 44.4053,160.117 48,146.5C 52.8057,142.89 56.139,138.223 58,132.5C 59.7533,131.373 61.5866,130.373 63.5,129.5C 63.6383,125.989 63.805,122.656 64,119.5C 66.0894,116.572 68.5894,114.239 71.5,112.5 Z"/></g>
<g><path style="opacity:0.412" fill="#454545" d="M 151.5,153.5 C 146.522,160.104 142.022,167.104 138,174.5C 131.888,178.279 126.055,182.445 120.5,187C 117.541,193.077 113.707,198.577 109,203.5C 112.239,195.014 116.072,186.681 120.5,178.5C 121.097,178.735 121.43,179.235 121.5,180C 120.496,181.798 119.996,183.632 120,185.5C 124.793,181.862 129.626,178.362 134.5,175C 136,173.5 137.5,172 139,170.5C 141.905,164.361 145.571,158.695 150,153.5C 150.69,152.262 151.19,152.262 151.5,153.5 Z"/></g>
</svg>
