<?xml version="1.0" encoding="UTF-8"?>
<!DOCTYPE svg PUBLIC "-//W3C//DTD SVG 1.1//EN" "http://www.w3.org/Graphics/SVG/1.1/DTD/svg11.dtd">
<svg xmlns="http://www.w3.org/2000/svg" version="1.1" width="626px" height="354px" style="shape-rendering:geometricPrecision; text-rendering:geometricPrecision; image-rendering:optimizeQuality; fill-rule:evenodd; clip-rule:evenodd" xmlns:xlink="http://www.w3.org/1999/xlink">
<g><path style="opacity:0.051" fill="#bae3ee" d="M 332.5,-0.5 C 337.167,-0.5 341.833,-0.5 346.5,-0.5C 350.217,0.679783 353.884,2.01312 357.5,3.5C 349.062,1.96162 340.728,0.62829 332.5,-0.5 Z"/></g>
<g><path style="opacity:0.267" fill="#bfdfe8" d="M 299.5,-0.5 C 303.5,-0.5 307.5,-0.5 311.5,-0.5C 302.144,0.842508 292.81,2.84251 283.5,5.5C 288.756,3.30348 294.089,1.30348 299.5,-0.5 Z"/></g>
<g><path style="opacity:1" fill="#fefefe" d="M 389.5,24.5 C 396.09,28.7532 402.09,33.7532 407.5,39.5C 419.003,63.1548 419.17,86.8214 408,110.5C 404.896,114.085 402.063,117.752 399.5,121.5C 397.165,122.665 394.665,123.332 392,123.5C 382.23,121.87 372.564,122.204 363,124.5C 360.568,126.652 357.735,127.986 354.5,128.5C 353.5,129.5 352.5,130.5 351.5,131.5C 359.472,132.498 367.472,132.831 375.5,132.5C 382.761,133.66 390.095,135.16 397.5,137C 398.833,137.667 399.833,138.667 400.5,140C 404.16,140.553 407.494,141.886 410.5,144C 414.601,146.709 418.268,149.876 421.5,153.5C 425.369,156.884 428.536,160.884 431,165.5C 432.145,158.08 430.478,151.413 426,145.5C 422.631,141.963 419.131,138.629 415.5,135.5C 413.157,133.328 410.49,131.661 407.5,130.5C 407.561,125.724 409.228,121.724 412.5,118.5C 418.003,118.256 422.003,115.756 424.5,111C 426.081,110.293 427.581,109.46 429,108.5C 429.333,108.833 429.667,109.167 430,109.5C 432.266,108.044 434.766,107.21 437.5,107C 441.589,106.859 445.589,106.692 449.5,106.5C 456.926,108.691 464.259,111.191 471.5,114C 476.177,119.282 481.843,123.282 488.5,126C 488.167,126.333 487.833,126.667 487.5,127C 489.863,130.619 493.196,132.453 497.5,132.5C 497.519,134.06 497.852,135.56 498.5,137C 500.425,139.52 502.092,142.187 503.5,145C 504.285,146.79 504.285,148.457 503.5,150C 505.552,150.93 507.052,152.43 508,154.5C 509.257,158.929 510.924,163.263 513,167.5C 513.497,169.81 513.663,172.143 513.5,174.5C 507.423,174.196 501.423,174.696 495.5,176C 495.737,178.288 495.737,180.788 495.5,183.5C 498.602,183.846 501.435,183.179 504,181.5C 514.259,181.595 524.759,182.095 535.5,183C 540.747,183.93 545.747,185.597 550.5,188C 554.773,189.03 559.106,189.697 563.5,190C 565.57,190.948 567.07,192.448 568,194.5C 570.853,194.624 573.686,194.624 576.5,194.5C 578.076,196.731 580.243,198.397 583,199.5C 583.197,201.845 583.697,204.011 584.5,206C 585.549,206.492 586.549,206.326 587.5,205.5C 588.696,205.846 588.696,206.346 587.5,207C 588.793,207.49 590.127,207.657 591.5,207.5C 590.973,211.955 592.473,212.621 596,209.5C 600.406,212.074 603.573,215.741 605.5,220.5C 604.833,221.167 604.167,221.833 603.5,222.5C 606.647,223.185 609.647,224.185 612.5,225.5C 613.167,225.5 613.5,225.833 613.5,226.5C 614.034,237.403 610.534,246.737 603,254.5C 585.547,270.757 564.713,277.59 540.5,275C 529.837,272.491 523.003,265.991 520,255.5C 519.529,249.462 519.529,243.462 520,237.5C 515.292,244.368 509.792,250.368 503.5,255.5C 503.167,255.5 502.833,255.5 502.5,255.5C 478.547,271.737 452.214,276.904 423.5,271C 417.79,268.263 412.123,265.429 406.5,262.5C 402.083,258.58 397.916,254.58 394,250.5C 390.569,255.027 386.902,259.36 383,263.5C 378.808,267.03 374.642,270.53 370.5,274C 350.573,282.577 335.74,277.077 326,257.5C 323.201,253.855 320.034,253.522 316.5,256.5C 299.983,269.829 281.65,279.996 261.5,287C 252.112,288.843 242.779,290.343 233.5,291.5C 220.84,291.888 209.674,288.221 200,280.5C 195.515,275.351 191.848,269.684 189,263.5C 187.302,277.843 180.136,288.343 167.5,295C 163.29,296.609 159.29,298.442 155.5,300.5C 151.298,301.132 147.298,302.132 143.5,303.5C 114.651,308.175 85.9847,307.008 57.5,300C 48.1603,296.916 39.6603,292.416 32,286.5C 30.2467,283 29.08,279.333 28.5,275.5C 28.87,273.333 29.5367,271.333 30.5,269.5C 31.3382,269.158 31.6716,268.492 31.5,267.5C 32.1667,266.833 32.8333,266.167 33.5,265.5C 46.961,261.306 60.6276,257.806 74.5,255C 86.9134,254.365 99.2468,254.699 111.5,256C 109.075,254.787 106.741,253.621 104.5,252.5C 104.5,252.167 104.5,251.833 104.5,251.5C 101.611,247.101 98.1107,243.101 94,239.5C 92.5922,235.026 90.9255,230.693 89,226.5C 88.5005,220.509 88.3338,214.509 88.5,208.5C 90.8171,204.854 93.4838,201.52 96.5,198.5C 99.033,199.561 101.033,198.728 102.5,196C 106.114,196.034 108.447,194.367 109.5,191C 112.672,189.248 115.672,187.248 118.5,185C 120.433,184.749 122.266,184.249 124,183.5C 125.119,184.552 125.619,185.719 125.5,187C 127.579,187.808 129.579,187.641 131.5,186.5C 129.565,185.932 128.232,184.765 127.5,183C 130.198,181.059 133.198,179.559 136.5,178.5C 137.127,177.583 137.461,176.583 137.5,175.5C 145.526,175.903 153.36,175.236 161,173.5C 165.181,174.465 168.847,175.131 172,175.5C 172.667,173.5 174,172.167 176,171.5C 178.656,165.52 181.822,159.853 185.5,154.5C 186.117,154.611 186.617,154.944 187,155.5C 190.056,152.388 193.556,149.888 197.5,148C 199.698,147.627 201.865,147.127 204,146.5C 208.332,150.228 212.666,153.895 217,157.5C 217.925,156.953 218.758,156.287 219.5,155.5C 219.376,154.893 219.043,154.56 218.5,154.5C 218.5,154.167 218.5,153.833 218.5,153.5C 216.93,144.66 214.763,135.993 212,127.5C 211.334,114.152 211.501,100.819 212.5,87.5C 217.436,68.6248 226.769,52.2914 240.5,38.5C 241.94,39.3629 243.274,39.3629 244.5,38.5C 248.261,34.1162 252.261,29.9495 256.5,26C 261.714,24.7262 266.381,22.3929 270.5,19C 271.598,18.2303 271.598,17.397 270.5,16.5C 273.378,14.8946 276.378,13.5612 279.5,12.5C 283.27,13.8007 286.604,12.9674 289.5,10C 307.029,6.97995 324.696,5.97995 342.5,7C 351.437,9.86773 360.437,12.5344 369.5,15C 370.878,16.7134 372.545,18.0467 374.5,19C 379.567,20.8765 384.567,22.7099 389.5,24.5 Z"/></g>
<g><path style="opacity:0.894" fill="#88aeb8" d="M 357.5,3.5 C 360.855,3.68964 363.855,4.68964 366.5,6.5C 365.178,6.33003 364.011,6.66337 363,7.5C 361.544,5.53466 359.71,4.20132 357.5,3.5 Z"/></g>
<g><path style="opacity:0.204" fill="#87acb4" d="M 240.5,31.5 C 238.57,35.1002 235.903,38.1002 232.5,40.5C 234.43,36.8998 237.097,33.8998 240.5,31.5 Z"/></g>
<g><path style="opacity:0.227" fill="#96b3c3" d="M 229.5,43.5 C 229.262,45.4044 228.262,46.7377 226.5,47.5C 226.738,45.5956 227.738,44.2623 229.5,43.5 Z"/></g>
<g><path style="opacity:0.286" fill="#9abfc8" d="M 225.5,48.5 C 225.573,50.0269 224.906,51.0269 223.5,51.5C 223.427,49.9731 224.094,48.9731 225.5,48.5 Z"/></g>
<g><path style="opacity:0.667" fill="#82a9bb" d="M 212.5,71.5 C 212.585,74.6489 211.585,77.3155 209.5,79.5C 209.733,76.4582 210.733,73.7916 212.5,71.5 Z"/></g>
<g><path style="opacity:1" fill="#2a6383" d="M 432.5,66.5 C 435.003,70.507 436.67,74.8404 437.5,79.5C 437.846,85.8882 438.679,92.2215 440,98.5C 440.881,100.274 442.047,100.94 443.5,100.5C 439.548,101.494 435.548,102.16 431.5,102.5C 431.5,101.5 431.5,100.5 431.5,99.5C 433.042,98.6993 434.708,98.366 436.5,98.5C 434.969,81.9022 429.302,66.9022 419.5,53.5C 420.858,53.1778 422.525,53.1778 424.5,53.5C 425.732,57.1337 427.399,60.6337 429.5,64C 428.549,64.7175 428.383,65.5509 429,66.5C 430.145,65.3157 431.312,65.3157 432.5,66.5 Z"/></g>
<g><path style="opacity:0.157" fill="#a4c5d0" d="M 207.5,87.5 C 207.706,90.4951 207.04,93.1617 205.5,95.5C 205.565,92.5718 206.232,89.9052 207.5,87.5 Z"/></g>
<g><path style="opacity:0.239" fill="#8bb5c5" d="M 441.5,96.5 C 444.61,97.0885 447.61,97.7552 450.5,98.5C 446.988,99.0545 443.988,98.3878 441.5,96.5 Z"/></g>
<g><path style="opacity:1" fill="#e5f6f9" d="M 497.5,132.5 C 493.196,132.453 489.863,130.619 487.5,127C 487.833,126.667 488.167,126.333 488.5,126C 481.843,123.282 476.177,119.282 471.5,114C 464.259,111.191 456.926,108.691 449.5,106.5C 445.589,106.692 441.589,106.859 437.5,107C 434.766,107.21 432.266,108.044 430,109.5C 429.667,109.167 429.333,108.833 429,108.5C 427.581,109.46 426.081,110.293 424.5,111C 422.003,115.756 418.003,118.256 412.5,118.5C 414.552,116.122 416.552,113.789 418.5,111.5C 429.737,103.153 442.071,101.32 455.5,106C 472.303,110.559 486.303,119.392 497.5,132.5 Z"/></g>
<g><path style="opacity:1" fill="#35677d" d="M 437.5,79.5 C 439.834,84.8175 441.167,90.4842 441.5,96.5C 443.988,98.3878 446.988,99.0545 450.5,98.5C 464.329,101.582 476.662,107.582 487.5,116.5C 487.973,117.906 488.973,118.573 490.5,118.5C 491.5,118.833 492.167,119.5 492.5,120.5C 492.833,121.5 493.5,122.167 494.5,122.5C 505.674,131.709 513.341,143.376 517.5,157.5C 517.41,160.152 518.076,162.485 519.5,164.5C 519.5,164.833 519.5,165.167 519.5,165.5C 519.216,168.777 519.549,171.943 520.5,175C 529.882,175.842 539.216,177.008 548.5,178.5C 551.854,180.258 555.521,181.258 559.5,181.5C 561.792,183.267 564.458,184.267 567.5,184.5C 570.157,184.935 572.491,185.935 574.5,187.5C 576.026,190.893 578.693,192.226 582.5,191.5C 584.434,192.11 586.101,193.11 587.5,194.5C 587.973,195.906 588.973,196.573 590.5,196.5C 591.71,196.932 592.71,197.599 593.5,198.5C 593.973,199.906 594.973,200.573 596.5,200.5C 597.167,200.5 597.5,200.833 597.5,201.5C 597.973,202.906 598.973,203.573 600.5,203.5C 610.778,211.408 618.111,221.408 622.5,233.5C 621.778,233.082 621.278,232.416 621,231.5C 620.667,232.167 620.333,232.833 620,233.5C 619.697,231.112 618.863,228.945 617.5,227C 616.833,226.333 616.167,226.333 615.5,227C 616.337,228.011 616.67,229.178 616.5,230.5C 616.167,230.5 615.833,230.5 615.5,230.5C 615.34,228.847 614.674,227.514 613.5,226.5C 613.5,225.833 613.167,225.5 612.5,225.5C 609.499,219.023 605.166,213.523 599.5,209C 592.452,203.145 584.785,198.312 576.5,194.5C 551.776,181.82 525.442,176.653 497.5,179C 503.135,176.068 509.135,174.901 515.5,175.5C 515.243,158.666 509.243,144.332 497.5,132.5C 486.303,119.392 472.303,110.559 455.5,106C 442.071,101.32 429.737,103.153 418.5,111.5C 420.922,105.411 425.255,101.411 431.5,99.5C 431.5,100.5 431.5,101.5 431.5,102.5C 435.548,102.16 439.548,101.494 443.5,100.5C 442.047,100.94 440.881,100.274 440,98.5C 438.679,92.2215 437.846,85.8882 437.5,79.5 Z"/></g>
<g><path style="opacity:0.008" fill="#d3e5ea" d="M 487.5,116.5 C 489.027,116.427 490.027,117.094 490.5,118.5C 488.973,118.573 487.973,117.906 487.5,116.5 Z"/></g>
<g><path style="opacity:1" fill="#e0f7f9" d="M 212.5,87.5 C 211.501,100.819 211.334,114.152 212,127.5C 214.763,135.993 216.93,144.66 218.5,153.5C 214.589,146.324 211.756,138.657 210,130.5C 209.333,119.5 209.333,108.5 210,97.5C 210.535,93.9618 211.368,90.6284 212.5,87.5 Z"/></g>
<g><path style="opacity:0.008" fill="#d3e8ef" d="M 492.5,120.5 C 493.833,120.5 494.5,121.167 494.5,122.5C 493.5,122.167 492.833,121.5 492.5,120.5 Z"/></g>
<g><path style="opacity:1" fill="#36687c" d="M 311.5,-0.5 C 318.5,-0.5 325.5,-0.5 332.5,-0.5C 340.728,0.62829 349.062,1.96162 357.5,3.5C 359.71,4.20132 361.544,5.53466 363,7.5C 364.011,6.66337 365.178,6.33003 366.5,6.5C 396.448,17.7824 418.448,37.7824 432.5,66.5C 431.312,65.3157 430.145,65.3157 429,66.5C 428.383,65.5509 428.549,64.7175 429.5,64C 427.399,60.6337 425.732,57.1337 424.5,53.5C 422.525,53.1778 420.858,53.1778 419.5,53.5C 415.874,48.5389 411.874,43.8722 407.5,39.5C 402.09,33.7532 396.09,28.7532 389.5,24.5C 364.939,7.41246 337.606,0.912465 307.5,5C 297.628,5.96577 288.295,8.46577 279.5,12.5C 276.378,13.5612 273.378,14.8946 270.5,16.5C 259.072,21.9339 249.072,29.2672 240.5,38.5C 226.769,52.2914 217.436,68.6248 212.5,87.5C 211.368,90.6284 210.535,93.9618 210,97.5C 209.333,108.5 209.333,119.5 210,130.5C 211.756,138.657 214.589,146.324 218.5,153.5C 218.5,153.833 218.5,154.167 218.5,154.5C 213.909,152.372 210.575,148.539 208.5,143C 199.29,143.605 191.623,147.438 185.5,154.5C 179.845,158.48 176.178,163.814 174.5,170.5C 161.756,170.133 149.423,171.8 137.5,175.5C 121.623,179.41 107.956,187.077 96.5,198.5C 93.4838,201.52 90.8171,204.854 88.5,208.5C 87.407,210.349 86.0737,212.016 84.5,213.5C 83.1751,212.047 82.3418,212.381 82,214.5C 81.2303,213.402 80.397,213.402 79.5,214.5C 88.8121,194.859 103.812,181.526 124.5,174.5C 126.553,174.598 128.22,173.931 129.5,172.5C 133.286,172.68 136.619,171.68 139.5,169.5C 142.589,168.215 145.922,167.549 149.5,167.5C 154.847,167.432 160.18,167.099 165.5,166.5C 167.952,166.461 169.952,165.794 171.5,164.5C 177.317,153.85 185.65,145.684 196.5,140C 198.436,139.187 200.436,138.687 202.5,138.5C 203.833,138.5 205.167,138.5 206.5,138.5C 206.473,132.949 205.806,127.616 204.5,122.5C 203.44,113.598 203.774,104.598 205.5,95.5C 207.04,93.1617 207.706,90.4951 207.5,87.5C 207.565,84.5718 208.232,81.9052 209.5,79.5C 211.585,77.3155 212.585,74.6489 212.5,71.5C 214.633,63.893 218.3,57.2263 223.5,51.5C 224.906,51.0269 225.573,50.0269 225.5,48.5C 225.5,47.8333 225.833,47.5 226.5,47.5C 228.262,46.7377 229.262,45.4044 229.5,43.5C 230.167,42.1667 231.167,41.1667 232.5,40.5C 235.903,38.1002 238.57,35.1002 240.5,31.5C 252.765,19.5289 267.098,10.8622 283.5,5.5C 292.81,2.84251 302.144,0.842508 311.5,-0.5 Z"/></g>
<g><path style="opacity:1" fill="#daf3f7" d="M 270.5,16.5 C 271.598,17.397 271.598,18.2303 270.5,19C 266.381,22.3929 261.714,24.7262 256.5,26C 252.261,29.9495 248.261,34.1162 244.5,38.5C 243.274,39.3629 241.94,39.3629 240.5,38.5C 249.072,29.2672 259.072,21.9339 270.5,16.5 Z"/></g>
<g><path style="opacity:1" fill="#e1f6f9" d="M 389.5,24.5 C 384.567,22.7099 379.567,20.8765 374.5,19C 372.545,18.0467 370.878,16.7134 369.5,15C 360.437,12.5344 351.437,9.86773 342.5,7C 324.696,5.97995 307.029,6.97995 289.5,10C 286.604,12.9674 283.27,13.8007 279.5,12.5C 288.295,8.46577 297.628,5.96577 307.5,5C 337.606,0.912465 364.939,7.41246 389.5,24.5 Z"/></g>
<g><path style="opacity:1" fill="#c3d9f3" d="M 407.5,39.5 C 411.874,43.8722 415.874,48.5389 419.5,53.5C 429.302,66.9022 434.969,81.9022 436.5,98.5C 434.708,98.366 433.042,98.6993 431.5,99.5C 425.255,101.411 420.922,105.411 418.5,111.5C 416.552,113.789 414.552,116.122 412.5,118.5C 409.228,121.724 407.561,125.724 407.5,130.5C 410.49,131.661 413.157,133.328 415.5,135.5C 415.351,136.552 415.517,137.552 416,138.5C 419.406,141.567 422.406,144.901 425,148.5C 425.494,150.134 425.66,151.801 425.5,153.5C 424.167,153.5 422.833,153.5 421.5,153.5C 418.268,149.876 414.601,146.709 410.5,144C 407.494,141.886 404.16,140.553 400.5,140C 399.833,138.667 398.833,137.667 397.5,137C 390.095,135.16 382.761,133.66 375.5,132.5C 375.719,131.325 375.386,130.325 374.5,129.5C 372.253,128.626 369.92,128.292 367.5,128.5C 367.5,127.167 367.5,125.833 367.5,124.5C 375.521,124.343 383.521,124.677 391.5,125.5C 395.352,126.221 398.019,124.887 399.5,121.5C 402.063,117.752 404.896,114.085 408,110.5C 419.17,86.8214 419.003,63.1548 407.5,39.5 Z"/></g>
<g><path style="opacity:0.169" fill="#a4c8d5" d="M 204.5,122.5 C 205.806,127.616 206.473,132.949 206.5,138.5C 205.167,138.5 203.833,138.5 202.5,138.5C 203.209,137.596 204.209,137.263 205.5,137.5C 204.836,132.527 204.503,127.527 204.5,122.5 Z"/></g>
<g><path style="opacity:1" fill="#ccdceb" d="M 399.5,121.5 C 398.019,124.887 395.352,126.221 391.5,125.5C 383.521,124.677 375.521,124.343 367.5,124.5C 367.5,125.833 367.5,127.167 367.5,128.5C 369.92,128.292 372.253,128.626 374.5,129.5C 375.386,130.325 375.719,131.325 375.5,132.5C 367.472,132.831 359.472,132.498 351.5,131.5C 352.5,130.5 353.5,129.5 354.5,128.5C 357.735,127.986 360.568,126.652 363,124.5C 372.564,122.204 382.23,121.87 392,123.5C 394.665,123.332 397.165,122.665 399.5,121.5 Z"/></g>
<g><path style="opacity:1" fill="#e3f5f8" d="M 218.5,154.5 C 219.043,154.56 219.376,154.893 219.5,155.5C 218.758,156.287 217.925,156.953 217,157.5C 212.666,153.895 208.332,150.228 204,146.5C 201.865,147.127 199.698,147.627 197.5,148C 193.556,149.888 190.056,152.388 187,155.5C 186.617,154.944 186.117,154.611 185.5,154.5C 191.623,147.438 199.29,143.605 208.5,143C 210.575,148.539 213.909,152.372 218.5,154.5 Z"/></g>
<g><path style="opacity:1" fill="#cedce9" d="M 415.5,135.5 C 419.131,138.629 422.631,141.963 426,145.5C 430.478,151.413 432.145,158.08 431,165.5C 428.536,160.884 425.369,156.884 421.5,153.5C 422.833,153.5 424.167,153.5 425.5,153.5C 425.66,151.801 425.494,150.134 425,148.5C 422.406,144.901 419.406,141.567 416,138.5C 415.517,137.552 415.351,136.552 415.5,135.5 Z"/></g>
<g><path style="opacity:0.196" fill="#91bac8" d="M 517.5,157.5 C 518.924,159.515 519.59,161.848 519.5,164.5C 518.076,162.485 517.41,160.152 517.5,157.5 Z"/></g>
<g><path style="opacity:0.182" fill="#add3dd" d="M 171.5,164.5 C 169.952,165.794 167.952,166.461 165.5,166.5C 160.18,167.099 154.847,167.432 149.5,167.5C 156.701,166.197 164.034,165.197 171.5,164.5 Z"/></g>
<g><path style="opacity:0.631" fill="#87acba" d="M 139.5,169.5 C 136.619,171.68 133.286,172.68 129.5,172.5C 132.505,170.723 135.838,169.723 139.5,169.5 Z"/></g>
<g><path style="opacity:0.204" fill="#b6d5de" d="M 129.5,172.5 C 128.22,173.931 126.553,174.598 124.5,174.5C 125.78,173.069 127.447,172.402 129.5,172.5 Z"/></g>
<g><path style="opacity:1" fill="#e3f6f9" d="M 185.5,154.5 C 181.822,159.853 178.656,165.52 176,171.5C 174,172.167 172.667,173.5 172,175.5C 168.847,175.131 165.181,174.465 161,173.5C 153.36,175.236 145.526,175.903 137.5,175.5C 149.423,171.8 161.756,170.133 174.5,170.5C 176.178,163.814 179.845,158.48 185.5,154.5 Z"/></g>
<g><path style="opacity:0.216" fill="#a2c4d2" d="M 519.5,165.5 C 520.132,168.362 521.132,171.196 522.5,174C 531.467,174.549 540.134,176.049 548.5,178.5C 539.216,177.008 529.882,175.842 520.5,175C 519.549,171.943 519.216,168.777 519.5,165.5 Z"/></g>
<g><path style="opacity:0.031" fill="#bbdae4" d="M 548.5,178.5 C 552.479,178.742 556.146,179.742 559.5,181.5C 555.521,181.258 551.854,180.258 548.5,178.5 Z"/></g>
<g><path style="opacity:1" fill="#e5f6f8" d="M 497.5,132.5 C 509.243,144.332 515.243,158.666 515.5,175.5C 509.135,174.901 503.135,176.068 497.5,179C 525.442,176.653 551.776,181.82 576.5,194.5C 573.686,194.624 570.853,194.624 568,194.5C 567.07,192.448 565.57,190.948 563.5,190C 559.106,189.697 554.773,189.03 550.5,188C 545.747,185.597 540.747,183.93 535.5,183C 524.759,182.095 514.259,181.595 504,181.5C 501.435,183.179 498.602,183.846 495.5,183.5C 495.737,180.788 495.737,178.288 495.5,176C 501.423,174.696 507.423,174.196 513.5,174.5C 513.663,172.143 513.497,169.81 513,167.5C 510.924,163.263 509.257,158.929 508,154.5C 507.052,152.43 505.552,150.93 503.5,150C 504.285,148.457 504.285,146.79 503.5,145C 502.092,142.187 500.425,139.52 498.5,137C 497.852,135.56 497.519,134.06 497.5,132.5 Z"/></g>
<g><path style="opacity:0.2" fill="#b5d3e1" d="M 559.5,181.5 C 562.542,181.733 565.208,182.733 567.5,184.5C 564.458,184.267 561.792,183.267 559.5,181.5 Z"/></g>
<g><path style="opacity:0.506" fill="#69949d" d="M 574.5,187.5 C 577.485,188.326 580.151,189.659 582.5,191.5C 578.693,192.226 576.026,190.893 574.5,187.5 Z"/></g>
<g><path style="opacity:1" fill="#e4f6f8" d="M 137.5,175.5 C 137.461,176.583 137.127,177.583 136.5,178.5C 133.198,179.559 130.198,181.059 127.5,183C 128.232,184.765 129.565,185.932 131.5,186.5C 129.579,187.641 127.579,187.808 125.5,187C 125.619,185.719 125.119,184.552 124,183.5C 122.266,184.249 120.433,184.749 118.5,185C 115.672,187.248 112.672,189.248 109.5,191C 108.447,194.367 106.114,196.034 102.5,196C 101.033,198.728 99.033,199.561 96.5,198.5C 107.956,187.077 121.623,179.41 137.5,175.5 Z"/></g>
<g><path style="opacity:0.106" fill="#b9d7df" d="M 587.5,194.5 C 589.027,194.427 590.027,195.094 590.5,196.5C 588.973,196.573 587.973,195.906 587.5,194.5 Z"/></g>
<g><path style="opacity:0.012" fill="#cee6eb" d="M 593.5,198.5 C 595.027,198.427 596.027,199.094 596.5,200.5C 594.973,200.573 593.973,199.906 593.5,198.5 Z"/></g>
<g><path style="opacity:0.016" fill="#b8e7ec" d="M 597.5,201.5 C 599.027,201.427 600.027,202.094 600.5,203.5C 598.973,203.573 597.973,202.906 597.5,201.5 Z"/></g>
<g><path style="opacity:1" fill="#e7f5f7" d="M 576.5,194.5 C 584.785,198.312 592.452,203.145 599.5,209C 605.166,213.523 609.499,219.023 612.5,225.5C 609.647,224.185 606.647,223.185 603.5,222.5C 604.167,221.833 604.833,221.167 605.5,220.5C 603.573,215.741 600.406,212.074 596,209.5C 592.473,212.621 590.973,211.955 591.5,207.5C 590.127,207.657 588.793,207.49 587.5,207C 588.696,206.346 588.696,205.846 587.5,205.5C 586.549,206.326 585.549,206.492 584.5,206C 583.697,204.011 583.197,201.845 583,199.5C 580.243,198.397 578.076,196.731 576.5,194.5 Z"/></g>
<g><path style="opacity:1" fill="#acd5f1" d="M 83.5,217.5 C 83.5065,226.304 83.6732,235.304 84,244.5C 87.7351,248.596 91.9018,249.262 96.5,246.5C 98.5134,249.175 101.18,250.842 104.5,251.5C 104.5,251.833 104.5,252.167 104.5,252.5C 101.518,252.037 98.5176,251.704 95.5,251.5C 91.3656,250.515 87.0323,250.182 82.5,250.5C 79.5269,239.344 79.8602,228.344 83.5,217.5 Z"/></g>
<g><path style="opacity:1" fill="#c4dbf1" d="M 88.5,208.5 C 88.3338,214.509 88.5005,220.509 89,226.5C 90.9255,230.693 92.5922,235.026 94,239.5C 98.1107,243.101 101.611,247.101 104.5,251.5C 101.18,250.842 98.5134,249.175 96.5,246.5C 91.9018,249.262 87.7351,248.596 84,244.5C 83.6732,235.304 83.5065,226.304 83.5,217.5C 83.8333,216.167 84.1667,214.833 84.5,213.5C 86.0737,212.016 87.407,210.349 88.5,208.5 Z"/></g>
<g><path style="opacity:0.431" fill="#8fb1be" d="M 622.5,233.5 C 624.04,235.838 624.706,238.505 624.5,241.5C 623.232,239.095 622.565,236.428 622.5,233.5 Z"/></g>
<g><path style="opacity:0.106" fill="#a7ccd9" d="M 76.5,225.5 C 76.0982,233.945 76.7648,242.279 78.5,250.5C 75.1667,250.833 71.8333,251.167 68.5,251.5C 70.9333,250.587 73.4333,249.587 76,248.5C 75.291,240.696 75.4577,233.029 76.5,225.5 Z"/></g>
<g><path style="opacity:1" fill="#c3d8f7" d="M 615.5,230.5 C 615.833,230.5 616.167,230.5 616.5,230.5C 625.308,256.057 619.642,277.724 599.5,295.5C 597.5,295.833 595.5,296.167 593.5,296.5C 593.762,295.022 593.429,293.689 592.5,292.5C 592.167,292.667 591.833,292.833 591.5,293C 590.754,295.093 590.421,297.093 590.5,299C 585.868,300.983 581.535,303.483 577.5,306.5C 575.802,305.319 574.135,305.319 572.5,306.5C 571.504,308.911 569.837,311.411 567.5,314C 559.928,315.864 552.428,317.697 545,319.5C 543.18,320.979 541.347,322.313 539.5,323.5C 507.453,329.421 476.12,326.754 445.5,315.5C 443.971,315.529 442.804,316.196 442,317.5C 438.375,322.957 434.209,327.957 429.5,332.5C 427.483,333.529 425.483,334.529 423.5,335.5C 418.821,335.334 414.155,335.501 409.5,336C 412.167,336.667 412.167,337.333 409.5,338C 411.935,339.003 411.602,339.503 408.5,339.5C 405.563,338.53 402.563,337.863 399.5,337.5C 399.67,338.822 399.337,339.989 398.5,341C 383.111,347.028 367.111,348.028 350.5,344C 347.977,343.482 345.977,342.148 344.5,340C 342.833,339.667 341.167,339.333 339.5,339C 337.661,335.996 335.327,333.496 332.5,331.5C 332.709,330.914 333.043,330.414 333.5,330C 337.213,329.595 340.879,329.595 344.5,330C 344.167,329.667 343.833,329.333 343.5,329C 346.015,328.061 346.682,326.561 345.5,324.5C 352.134,321.692 351.801,321.025 344.5,322.5C 341.517,322.102 338.517,321.768 335.5,321.5C 330.745,322.645 325.578,323.645 320,324.5C 316.579,324.238 313.412,323.905 310.5,323.5C 308.25,326.949 305.584,327.282 302.5,324.5C 294.231,324.959 286.064,325.959 278,327.5C 276.333,327.167 274.667,326.833 273,326.5C 267.197,327.607 261.363,328.774 255.5,330C 256.5,330.333 257.5,330.667 258.5,331C 224.5,331.667 190.5,331.667 156.5,331C 136.616,330.064 116.949,327.564 97.5,323.5C 95.4712,323.67 93.4712,324.004 91.5,324.5C 88.1245,323.414 84.7912,322.414 81.5,321.5C 78.1833,322.053 74.85,322.386 71.5,322.5C 60.6715,320.46 50.0048,317.793 39.5,314.5C 39.2488,312.83 38.5822,311.33 37.5,310C 39.8856,309.716 40.5523,308.716 39.5,307C 37.1009,306.289 34.7676,306.456 32.5,307.5C 27.6966,304.363 22.3633,302.863 16.5,303C 15.2367,301.295 14.9034,299.628 15.5,298C 14.1354,296.318 12.6354,296.151 11,297.5C 6.91716,291.23 6.91716,285.23 11,279.5C 11.3333,279.833 11.6667,280.167 12,280.5C 16.8313,277.516 21.6647,274.516 26.5,271.5C 26.5245,279.049 28.8578,285.716 33.5,291.5C 36.003,292.964 38.6697,294.131 41.5,295C 42.3128,296.314 43.3128,297.481 44.5,298.5C 48.5319,299.225 52.5319,300.058 56.5,301C 58.9679,303.28 61.6346,305.28 64.5,307C 74.4557,306.806 84.1224,308.306 93.5,311.5C 107.712,309.488 122.045,308.322 136.5,308C 138.5,307.333 140.5,306.667 142.5,306C 143.252,305.329 143.586,304.496 143.5,303.5C 147.298,302.132 151.298,301.132 155.5,300.5C 161.296,301.305 166.296,299.805 170.5,296C 174.071,295.982 176.404,294.315 177.5,291C 180.618,289.853 183.618,288.52 186.5,287C 185.833,286.333 185.167,285.667 184.5,285C 186.409,281.767 188.409,278.6 190.5,275.5C 191.795,276.098 193.128,276.598 194.5,277C 198.613,282.967 203.947,287.301 210.5,290C 224.879,293.551 239.379,294.384 254,292.5C 255.473,295.741 257.307,296.074 259.5,293.5C 260.696,293.846 260.696,294.346 259.5,295C 260.793,295.49 262.127,295.657 263.5,295.5C 263.859,293.234 263.192,291.401 261.5,290C 267.616,288.025 273.616,285.858 279.5,283.5C 282.667,279.841 286.667,277.674 291.5,277C 293.212,273.845 295.879,272.178 299.5,272C 300.874,268.317 303.541,266.651 307.5,267C 311.529,262.818 316.029,259.318 321,256.5C 326.687,262.697 331.854,269.363 336.5,276.5C 340.863,278.722 345.363,280.722 350,282.5C 355.532,280.19 361.366,279.023 367.5,279C 375.924,271.811 384.258,264.644 392.5,257.5C 394.045,256.548 395.712,256.215 397.5,256.5C 397.5,258.5 397.5,260.5 397.5,262.5C 402.677,263.687 407.677,265.354 412.5,267.5C 414.393,269.952 415.726,272.619 416.5,275.5C 420.835,275.229 425.002,275.895 429,277.5C 440.878,278.143 452.711,277.477 464.5,275.5C 464.5,274.5 464.5,273.5 464.5,272.5C 469.552,272.55 474.552,272.05 479.5,271C 486.059,267.937 492.726,265.437 499.5,263.5C 500.5,260.833 501.5,258.167 502.5,255.5C 502.833,255.5 503.167,255.5 503.5,255.5C 507.656,253.597 511.989,251.931 516.5,250.5C 516.132,253.288 515.632,255.954 515,258.5C 517.416,261.663 519.582,264.996 521.5,268.5C 526.629,273.1 532.629,275.934 539.5,277C 559.911,279.143 578.911,275.143 596.5,265C 598.985,263.513 601.152,261.679 603,259.5C 603.333,259.833 603.667,260.167 604,260.5C 606.944,255.226 610.277,250.226 614,245.5C 614.611,240.504 615.111,235.504 615.5,230.5 Z"/></g>
<g><path style="opacity:1" fill="#276383" d="M 84.5,213.5 C 84.1667,214.833 83.8333,216.167 83.5,217.5C 79.8602,228.344 79.5269,239.344 82.5,250.5C 87.0323,250.182 91.3656,250.515 95.5,251.5C 96.2625,252.268 97.2625,252.768 98.5,253C 92.2599,253.133 86.0932,252.633 80,251.5C 79.6053,249.821 79.772,248.155 80.5,246.5C 76.9423,237.626 76.609,228.626 79.5,219.5C 79.0302,218.537 78.3635,218.537 77.5,219.5C 77.7959,217.597 78.4625,215.93 79.5,214.5C 80.397,213.402 81.2303,213.402 82,214.5C 82.3418,212.381 83.1751,212.047 84.5,213.5 Z"/></g>
<g><path style="opacity:0.987" fill="#2d6076" d="M 95.5,251.5 C 98.5176,251.704 101.518,252.037 104.5,252.5C 106.741,253.621 109.075,254.787 111.5,256C 99.2468,254.699 86.9134,254.365 74.5,255C 60.6276,257.806 46.961,261.306 33.5,265.5C 33.8657,264.191 35.199,263.191 37.5,262.5C 36.7573,261.818 36.0906,261.151 35.5,260.5C 38.7846,260.072 41.7846,259.072 44.5,257.5C 47.1457,257.108 49.6457,257.108 52,257.5C 52.3879,256.572 53.0546,255.905 54,255.5C 57.356,254.71 60.5226,253.71 63.5,252.5C 64.9187,251.549 66.5853,251.216 68.5,251.5C 71.8333,251.167 75.1667,250.833 78.5,250.5C 76.7648,242.279 76.0982,233.945 76.5,225.5C 76.3253,223.379 76.6586,221.379 77.5,219.5C 78.3635,218.537 79.0302,218.537 79.5,219.5C 76.609,228.626 76.9423,237.626 80.5,246.5C 79.772,248.155 79.6053,249.821 80,251.5C 86.0932,252.633 92.2599,253.133 98.5,253C 97.2625,252.768 96.2625,252.268 95.5,251.5 Z"/></g>
<g><path style="opacity:0.659" fill="#739aa8" d="M 63.5,252.5 C 60.5226,253.71 57.356,254.71 54,255.5C 53.0546,255.905 52.3879,256.572 52,257.5C 49.6457,257.108 47.1457,257.108 44.5,257.5C 50.4719,254.849 56.8053,253.183 63.5,252.5 Z"/></g>
<g><path style="opacity:0.267" fill="#88afbe" d="M 44.5,257.5 C 41.7846,259.072 38.7846,260.072 35.5,260.5C 35.1667,260.5 34.8333,260.5 34.5,260.5C 37.5046,258.723 40.8379,257.723 44.5,257.5 Z"/></g>
<g><path style="opacity:0.149" fill="#a0cdda" d="M 625.5,258.5 C 625.5,260.833 625.5,263.167 625.5,265.5C 624.833,266.5 624.167,267.5 623.5,268.5C 623.549,264.922 624.215,261.589 625.5,258.5 Z"/></g>
<g><path style="opacity:0.133" fill="#badae7" d="M 623.5,268.5 C 623.741,270.898 623.074,272.898 621.5,274.5C 621.595,272.214 622.262,270.214 623.5,268.5 Z"/></g>
<g><path style="opacity:1" fill="#c9d9ed" d="M 613.5,226.5 C 614.674,227.514 615.34,228.847 615.5,230.5C 615.111,235.504 614.611,240.504 614,245.5C 610.277,250.226 606.944,255.226 604,260.5C 603.667,260.167 603.333,259.833 603,259.5C 601.152,261.679 598.985,263.513 596.5,265C 578.911,275.143 559.911,279.143 539.5,277C 532.629,275.934 526.629,273.1 521.5,268.5C 519.582,264.996 517.416,261.663 515,258.5C 515.632,255.954 516.132,253.288 516.5,250.5C 511.989,251.931 507.656,253.597 503.5,255.5C 509.792,250.368 515.292,244.368 520,237.5C 519.529,243.462 519.529,249.462 520,255.5C 523.003,265.991 529.837,272.491 540.5,275C 564.713,277.59 585.547,270.757 603,254.5C 610.534,246.737 614.034,237.403 613.5,226.5 Z"/></g>
<g><path style="opacity:0.184" fill="#a7c2c9" d="M 5.5,276.5 C 4.83333,277.833 3.83333,278.833 2.5,279.5C 2.5,277.5 3.5,276.5 5.5,276.5 Z"/></g>
<g><path style="opacity:1" fill="#c9daed" d="M 502.5,255.5 C 501.5,258.167 500.5,260.833 499.5,263.5C 492.726,265.437 486.059,267.937 479.5,271C 474.552,272.05 469.552,272.55 464.5,272.5C 464.5,273.5 464.5,274.5 464.5,275.5C 452.711,277.477 440.878,278.143 429,277.5C 425.002,275.895 420.835,275.229 416.5,275.5C 415.726,272.619 414.393,269.952 412.5,267.5C 407.677,265.354 402.677,263.687 397.5,262.5C 397.5,260.5 397.5,258.5 397.5,256.5C 395.712,256.215 394.045,256.548 392.5,257.5C 384.258,264.644 375.924,271.811 367.5,279C 361.366,279.023 355.532,280.19 350,282.5C 345.363,280.722 340.863,278.722 336.5,276.5C 331.854,269.363 326.687,262.697 321,256.5C 316.029,259.318 311.529,262.818 307.5,267C 303.541,266.651 300.874,268.317 299.5,272C 295.879,272.178 293.212,273.845 291.5,277C 286.667,277.674 282.667,279.841 279.5,283.5C 273.616,285.858 267.616,288.025 261.5,290C 263.192,291.401 263.859,293.234 263.5,295.5C 262.127,295.657 260.793,295.49 259.5,295C 260.696,294.346 260.696,293.846 259.5,293.5C 257.307,296.074 255.473,295.741 254,292.5C 239.379,294.384 224.879,293.551 210.5,290C 203.947,287.301 198.613,282.967 194.5,277C 193.128,276.598 191.795,276.098 190.5,275.5C 188.409,278.6 186.409,281.767 184.5,285C 185.167,285.667 185.833,286.333 186.5,287C 183.618,288.52 180.618,289.853 177.5,291C 176.404,294.315 174.071,295.982 170.5,296C 166.296,299.805 161.296,301.305 155.5,300.5C 159.29,298.442 163.29,296.609 167.5,295C 180.136,288.343 187.302,277.843 189,263.5C 191.848,269.684 195.515,275.351 200,280.5C 209.674,288.221 220.84,291.888 233.5,291.5C 242.779,290.343 252.112,288.843 261.5,287C 281.65,279.996 299.983,269.829 316.5,256.5C 320.034,253.522 323.201,253.855 326,257.5C 335.74,277.077 350.573,282.577 370.5,274C 374.642,270.53 378.808,267.03 383,263.5C 386.902,259.36 390.569,255.027 394,250.5C 397.916,254.58 402.083,258.58 406.5,262.5C 412.123,265.429 417.79,268.263 423.5,271C 452.214,276.904 478.547,271.737 502.5,255.5 Z"/></g>
<g><path style="opacity:0.173" fill="#a7c8d6" d="M 2.5,279.5 C 2.57298,281.027 1.90632,282.027 0.5,282.5C 0.427017,280.973 1.09368,279.973 2.5,279.5 Z"/></g>
<g><path style="opacity:1" fill="#326984" d="M 622.5,233.5 C 622.565,236.428 623.232,239.095 624.5,241.5C 624.833,241.5 625.167,241.5 625.5,241.5C 625.5,247.167 625.5,252.833 625.5,258.5C 624.215,261.589 623.549,264.922 623.5,268.5C 622.262,270.214 621.595,272.214 621.5,274.5C 619.703,280.095 616.87,285.095 613,289.5C 588.379,315.002 558.212,328.668 522.5,330.5C 508.487,330.596 494.487,330.263 480.5,329.5C 469.242,327.935 458.242,325.269 447.5,321.5C 443.314,324.852 439.647,328.686 436.5,333C 431.537,337.142 426.204,340.642 420.5,343.5C 421.768,342.213 421.435,341.213 419.5,340.5C 423.075,338.93 426.408,336.93 429.5,334.5C 430.773,333.743 430.773,333.077 429.5,332.5C 434.209,327.957 438.375,322.957 442,317.5C 442.804,316.196 443.971,315.529 445.5,315.5C 476.12,326.754 507.453,329.421 539.5,323.5C 562.177,319.49 582.177,310.157 599.5,295.5C 619.642,277.724 625.308,256.057 616.5,230.5C 616.67,229.178 616.337,228.011 615.5,227C 616.167,226.333 616.833,226.333 617.5,227C 618.863,228.945 619.697,231.112 620,233.5C 620.333,232.833 620.667,232.167 621,231.5C 621.278,232.416 621.778,233.082 622.5,233.5 Z"/></g>
<g><path style="opacity:1" fill="#b4daf6" d="M 31.5,267.5 C 31.6716,268.492 31.3382,269.158 30.5,269.5C 28.6203,269.229 27.287,269.896 26.5,271.5C 21.6647,274.516 16.8313,277.516 12,280.5C 11.6667,280.167 11.3333,279.833 11,279.5C 6.91716,285.23 6.91716,291.23 11,297.5C 12.6354,296.151 14.1354,296.318 15.5,298C 14.9034,299.628 15.2367,301.295 16.5,303C 22.3633,302.863 27.6966,304.363 32.5,307.5C 34.7676,306.456 37.1009,306.289 39.5,307C 40.5523,308.716 39.8856,309.716 37.5,310C 38.5822,311.33 39.2488,312.83 39.5,314.5C 29.9806,311.406 20.9806,307.24 12.5,302C 2.21574,294.061 1.88241,285.727 11.5,277C 17.5478,272.476 24.2145,269.309 31.5,267.5 Z"/></g>
<g><path style="opacity:1" fill="#b6d9f4" d="M 599.5,295.5 C 582.177,310.157 562.177,319.49 539.5,323.5C 541.347,322.313 543.18,320.979 545,319.5C 552.428,317.697 559.928,315.864 567.5,314C 569.837,311.411 571.504,308.911 572.5,306.5C 574.135,305.319 575.802,305.319 577.5,306.5C 581.535,303.483 585.868,300.983 590.5,299C 590.421,297.093 590.754,295.093 591.5,293C 591.833,292.833 592.167,292.667 592.5,292.5C 593.429,293.689 593.762,295.022 593.5,296.5C 595.5,296.167 597.5,295.833 599.5,295.5 Z"/></g>
<g><path style="opacity:1" fill="#c7d9ee" d="M 30.5,269.5 C 29.5367,271.333 28.87,273.333 28.5,275.5C 29.08,279.333 30.2467,283 32,286.5C 39.6603,292.416 48.1603,296.916 57.5,300C 85.9847,307.008 114.651,308.175 143.5,303.5C 143.586,304.496 143.252,305.329 142.5,306C 140.5,306.667 138.5,307.333 136.5,308C 122.045,308.322 107.712,309.488 93.5,311.5C 84.1224,308.306 74.4557,306.806 64.5,307C 61.6346,305.28 58.9679,303.28 56.5,301C 52.5319,300.058 48.5319,299.225 44.5,298.5C 43.3128,297.481 42.3128,296.314 41.5,295C 38.6697,294.131 36.003,292.964 33.5,291.5C 28.8578,285.716 26.5245,279.049 26.5,271.5C 27.287,269.896 28.6203,269.229 30.5,269.5 Z"/></g>
<g><path style="opacity:0.063" fill="#afccd9" d="M 25.5,314.5 C 28.6489,314.415 31.3155,315.415 33.5,317.5C 30.5568,317.02 27.8902,316.02 25.5,314.5 Z"/></g>
<g><path style="opacity:0.404" fill="#9cc0c9" d="M 33.5,317.5 C 35.8984,317.259 37.8984,317.926 39.5,319.5C 37.2143,319.405 35.2143,318.738 33.5,317.5 Z"/></g>
<g><path style="opacity:0.322" fill="#8cb2be" d="M 40.5,319.5 C 43.9164,319.528 46.9164,320.528 49.5,322.5C 46.2154,322.072 43.2154,321.072 40.5,319.5 Z"/></g>
<g><path style="opacity:0.341" fill="#97bbc5" d="M 50.5,322.5 C 53.4282,322.565 56.0948,323.232 58.5,324.5C 55.5049,324.706 52.8383,324.04 50.5,322.5 Z"/></g>
<g><path style="opacity:0.588" fill="#8ab2bc" d="M 58.5,324.5 C 63.1201,324.74 67.4535,325.74 71.5,327.5C 66.8799,327.26 62.5465,326.26 58.5,324.5 Z"/></g>
<g><path style="opacity:0.604" fill="#92b8c6" d="M 87.5,330.5 C 91.7905,330.198 95.7905,330.864 99.5,332.5C 95.2671,332.461 91.2671,331.795 87.5,330.5 Z"/></g>
<g><path style="opacity:0.176" fill="#91afc1" d="M 480.5,329.5 C 494.487,330.263 508.487,330.596 522.5,330.5C 517.177,331.166 511.677,331.499 506,331.5C 497.283,331.652 488.783,330.986 480.5,329.5 Z"/></g>
<g><path style="opacity:0.588" fill="#97b9c5" d="M 100.5,332.5 C 109.057,332.779 117.391,333.779 125.5,335.5C 116.934,335.29 108.601,334.29 100.5,332.5 Z"/></g>
<g><path style="opacity:1" fill="#b4daf7" d="M 345.5,324.5 C 346.682,326.561 346.015,328.061 343.5,329C 343.833,329.333 344.167,329.667 344.5,330C 340.879,329.595 337.213,329.595 333.5,330C 333.043,330.414 332.709,330.914 332.5,331.5C 335.327,333.496 337.661,335.996 339.5,339C 341.167,339.333 342.833,339.667 344.5,340C 345.977,342.148 347.977,343.482 350.5,344C 367.111,348.028 383.111,347.028 398.5,341C 399.337,339.989 399.67,338.822 399.5,337.5C 402.563,337.863 405.563,338.53 408.5,339.5C 411.602,339.503 411.935,339.003 409.5,338C 412.167,337.333 412.167,336.667 409.5,336C 414.155,335.501 418.821,335.334 423.5,335.5C 413.08,342.865 401.413,347.031 388.5,348C 364.235,351.688 342.569,346.022 323.5,331C 330.852,328.83 338.185,326.663 345.5,324.5 Z"/></g>
<g><path style="opacity:0.161" fill="#9bc3cb" d="M 326.5,339.5 C 328.027,339.427 329.027,340.094 329.5,341.5C 327.973,341.573 326.973,340.906 326.5,339.5 Z"/></g>
<g><path style="opacity:0.125" fill="#a2cad9" d="M 331.5,342.5 C 333.674,342.75 335.341,343.75 336.5,345.5C 334.326,345.25 332.659,344.25 331.5,342.5 Z"/></g>
<g><path style="opacity:1" fill="#326784" d="M 34.5,260.5 C 34.8333,260.5 35.1667,260.5 35.5,260.5C 36.0906,261.151 36.7573,261.818 37.5,262.5C 35.199,263.191 33.8657,264.191 33.5,265.5C 32.8333,266.167 32.1667,266.833 31.5,267.5C 24.2145,269.309 17.5478,272.476 11.5,277C 1.88241,285.727 2.21574,294.061 12.5,302C 20.9806,307.24 29.9806,311.406 39.5,314.5C 50.0048,317.793 60.6715,320.46 71.5,322.5C 102.982,329.369 134.982,333.036 167.5,333.5C 179.329,334.167 191.329,334.5 203.5,334.5C 223.686,334.612 243.686,333.945 263.5,332.5C 290.921,331.389 317.921,328.056 344.5,322.5C 351.801,321.025 352.134,321.692 345.5,324.5C 338.185,326.663 330.852,328.83 323.5,331C 342.569,346.022 364.235,351.688 388.5,348C 401.413,347.031 413.08,342.865 423.5,335.5C 425.483,334.529 427.483,333.529 429.5,332.5C 430.773,333.077 430.773,333.743 429.5,334.5C 426.408,336.93 423.075,338.93 419.5,340.5C 421.435,341.213 421.768,342.213 420.5,343.5C 418.179,343.229 416.179,343.896 414.5,345.5C 413.914,345.291 413.414,344.957 413,344.5C 410.018,346.585 406.685,347.919 403,348.5C 401.636,349.371 400.47,350.371 399.5,351.5C 397.5,352.167 395.5,352.833 393.5,353.5C 382.167,353.5 370.833,353.5 359.5,353.5C 359.5,353.167 359.5,352.833 359.5,352.5C 354.418,350.563 349.085,349.23 343.5,348.5C 342.486,347.326 341.153,346.66 339.5,346.5C 338.209,346.737 337.209,346.404 336.5,345.5C 335.341,343.75 333.674,342.75 331.5,342.5C 330.508,342.672 329.842,342.338 329.5,341.5C 329.027,340.094 328.027,339.427 326.5,339.5C 326.027,338.094 325.027,337.427 323.5,337.5C 322.415,335.413 320.749,334.08 318.5,333.5C 318.167,333.5 317.833,333.5 317.5,333.5C 311.443,332.262 305.443,332.595 299.5,334.5C 293.596,334.321 287.929,334.988 282.5,336.5C 281.5,336.5 280.5,336.5 279.5,336.5C 267.317,336.642 255.317,337.308 243.5,338.5C 203.959,340.384 164.625,339.384 125.5,335.5C 117.391,333.779 109.057,332.779 100.5,332.5C 100.167,332.5 99.8333,332.5 99.5,332.5C 95.7905,330.864 91.7905,330.198 87.5,330.5C 81.9053,330.246 76.5719,329.246 71.5,327.5C 67.4535,325.74 63.1201,324.74 58.5,324.5C 56.0948,323.232 53.4282,322.565 50.5,322.5C 50.1667,322.5 49.8333,322.5 49.5,322.5C 46.9164,320.528 43.9164,319.528 40.5,319.5C 40.1667,319.5 39.8333,319.5 39.5,319.5C 37.8984,317.926 35.8984,317.259 33.5,317.5C 31.3155,315.415 28.6489,314.415 25.5,314.5C 14.5847,311.061 5.91799,304.728 -0.5,295.5C -0.5,291.167 -0.5,286.833 -0.5,282.5C -0.166667,282.5 0.166667,282.5 0.5,282.5C 1.90632,282.027 2.57298,281.027 2.5,279.5C 3.83333,278.833 4.83333,277.833 5.5,276.5C 7.3355,273.832 9.66883,271.666 12.5,270C 19.5056,265.995 26.8389,262.829 34.5,260.5 Z"/></g>
<g><path style="opacity:0.173" fill="#a6c5d1" d="M 323.5,337.5 C 325.027,337.427 326.027,338.094 326.5,339.5C 324.973,339.573 323.973,338.906 323.5,337.5 Z"/></g>
<g><path style="opacity:0.141" fill="#94b7c7" d="M 279.5,336.5 C 267.7,338.016 255.7,338.682 243.5,338.5C 255.317,337.308 267.317,336.642 279.5,336.5 Z"/></g>
<g><path style="opacity:0.043" fill="#cceaf0" d="M 299.5,334.5 C 294.056,335.884 288.389,336.55 282.5,336.5C 287.929,334.988 293.596,334.321 299.5,334.5 Z"/></g>
<g><path style="opacity:0.561" fill="#92b9c4" d="M 318.5,333.5 C 320.749,334.08 322.415,335.413 323.5,337.5C 321.251,336.92 319.585,335.587 318.5,333.5 Z"/></g>
<g><path style="opacity:0.137" fill="#b9dae5" d="M 317.5,333.5 C 311.491,333.701 305.491,334.034 299.5,334.5C 305.443,332.595 311.443,332.262 317.5,333.5 Z"/></g>
<g><path style="opacity:1" fill="#92c3e6" d="M 263.5,332.5 C 243.686,333.945 223.686,334.612 203.5,334.5C 191.329,334.5 179.329,334.167 167.5,333.5C 199.505,333.559 231.505,333.225 263.5,332.5 Z"/></g>
<g><path style="opacity:1" fill="#b5daf6" d="M 344.5,322.5 C 317.921,328.056 290.921,331.389 263.5,332.5C 231.505,333.225 199.505,333.559 167.5,333.5C 134.982,333.036 102.982,329.369 71.5,322.5C 74.85,322.386 78.1833,322.053 81.5,321.5C 84.7912,322.414 88.1245,323.414 91.5,324.5C 93.4712,324.004 95.4712,323.67 97.5,323.5C 116.949,327.564 136.616,330.064 156.5,331C 190.5,331.667 224.5,331.667 258.5,331C 257.5,330.667 256.5,330.333 255.5,330C 261.363,328.774 267.197,327.607 273,326.5C 274.667,326.833 276.333,327.167 278,327.5C 286.064,325.959 294.231,324.959 302.5,324.5C 305.584,327.282 308.25,326.949 310.5,323.5C 313.412,323.905 316.579,324.238 320,324.5C 325.578,323.645 330.745,322.645 335.5,321.5C 338.517,321.768 341.517,322.102 344.5,322.5 Z"/></g>
<g><path style="opacity:0.078" fill="#d1e8f0" d="M 339.5,346.5 C 341.153,346.66 342.486,347.326 343.5,348.5C 341.62,348.771 340.287,348.104 339.5,346.5 Z"/></g>
<g><path style="opacity:0.625" fill="#638d9c" d="M 420.5,343.5 C 414.099,347.525 407.099,350.192 399.5,351.5C 400.47,350.371 401.636,349.371 403,348.5C 406.685,347.919 410.018,346.585 413,344.5C 413.414,344.957 413.914,345.291 414.5,345.5C 416.179,343.896 418.179,343.229 420.5,343.5 Z"/></g>
<g><path style="opacity:0.62" fill="#a6cbd8" d="M 343.5,348.5 C 349.085,349.23 354.418,350.563 359.5,352.5C 353.821,352.155 348.488,350.822 343.5,348.5 Z"/></g>
</svg>
