<?xml version="1.0" encoding="UTF-8"?>
<!DOCTYPE svg PUBLIC "-//W3C//DTD SVG 1.1//EN" "http://www.w3.org/Graphics/SVG/1.1/DTD/svg11.dtd">
<svg xmlns="http://www.w3.org/2000/svg" version="1.1" width="499px" height="499px" style="shape-rendering:geometricPrecision; text-rendering:geometricPrecision; image-rendering:optimizeQuality; fill-rule:evenodd; clip-rule:evenodd" xmlns:xlink="http://www.w3.org/1999/xlink">
<g><path style="opacity:1" fill="#fbd709" d="M 249.5,57.5 C 250.537,58.9303 251.204,60.597 251.5,62.5C 251.5,73.5 251.5,84.5 251.5,95.5C 252.5,95.5 253.5,95.5 254.5,95.5C 254.788,101.229 254.454,106.896 253.5,112.5C 250.453,113.316 248.787,115.316 248.5,118.5C 245.579,119.407 242.579,119.74 239.5,119.5C 237.26,115.599 235.76,111.266 235,106.5C 233.577,90.8537 232.91,75.187 233,59.5C 238.043,53.896 243.543,53.2294 249.5,57.5 Z"/></g>
<g><path style="opacity:1" fill="#edd53c" d="M 249.5,57.5 C 243.543,53.2294 238.043,53.896 233,59.5C 232.91,75.187 233.577,90.8537 235,106.5C 235.76,111.266 237.26,115.599 239.5,119.5C 242.579,119.74 245.579,119.407 248.5,118.5C 248.787,115.316 250.453,113.316 253.5,112.5C 254.454,106.896 254.788,101.229 254.5,95.5C 254.833,95.5 255.167,95.5 255.5,95.5C 256.677,102.224 256.511,108.891 255,115.5C 246.771,124.039 239.438,123.372 233,113.5C 232.505,111.527 232.338,109.527 232.5,107.5C 232.671,93.8207 232.338,80.154 231.5,66.5C 230.69,61.6481 232.024,57.6481 235.5,54.5C 235.804,53.8501 236.137,53.1835 236.5,52.5C 242.668,49.9642 247.001,51.6309 249.5,57.5 Z"/></g>
<g><path style="opacity:0.757" fill="#ebda5e" d="M 235.5,54.5 C 232.024,57.6481 230.69,61.6481 231.5,66.5C 232.338,80.154 232.671,93.8207 232.5,107.5C 231.517,103.702 231.183,99.7016 231.5,95.5C 230.873,82.8348 230.706,70.1682 231,57.5C 232.129,55.8588 233.629,54.8588 235.5,54.5 Z"/></g>
<g><path style="opacity:0.143" fill="#fcf7b1" d="M 254.5,69.5 C 252.917,67.4922 251.917,65.1589 251.5,62.5C 251.204,60.597 250.537,58.9303 249.5,57.5C 247.001,51.6309 242.668,49.9642 236.5,52.5C 236.137,53.1835 235.804,53.8501 235.5,54.5C 233.629,54.8588 232.129,55.8588 231,57.5C 230.706,70.1682 230.873,82.8348 231.5,95.5C 230.389,84.8282 229.389,73.9948 228.5,63C 230.01,51.7313 236.344,47.7313 247.5,51C 252.482,56.1067 254.815,62.2734 254.5,69.5 Z"/></g>
<g><path style="opacity:1" fill="#fbd70b" d="M 354.5,88.5 C 353.989,91.0215 352.989,93.3549 351.5,95.5C 350.85,95.8039 350.183,96.1373 349.5,96.5C 348.496,99.5126 347.163,102.346 345.5,105C 343.866,105.494 342.199,105.66 340.5,105.5C 340.162,107.854 339.662,110.187 339,112.5C 336.683,119.001 333.85,125.168 330.5,131C 328.589,133.272 326.089,134.438 323,134.5C 319.57,133.233 316.07,132.233 312.5,131.5C 312.5,131.167 312.5,130.833 312.5,130.5C 311.446,125.418 312.946,121.418 317,118.5C 318.286,115.595 319.286,112.595 320,109.5C 323.606,102.817 327.106,96.1506 330.5,89.5C 331.726,85.38 333.726,81.7133 336.5,78.5C 340.361,72.6872 345.695,71.0206 352.5,73.5C 353.771,75.5851 354.771,77.7518 355.5,80C 354.784,82.7923 354.451,85.6257 354.5,88.5 Z"/></g>
<g><path style="opacity:0.133" fill="#fdf8b7" d="M 140.5,94.5 C 138.393,91.9634 136.059,89.6301 133.5,87.5C 125.144,84.8268 119.477,87.4934 116.5,95.5C 117.272,88.3967 121.272,84.73 128.5,84.5C 134.625,85.292 138.625,88.6253 140.5,94.5 Z"/></g>
<g><path style="opacity:0.314" fill="#fcf8b6" d="M 254.5,70.5 C 254.884,78.8308 255.218,87.1641 255.5,95.5C 255.167,95.5 254.833,95.5 254.5,95.5C 253.408,87.0078 253.408,78.6745 254.5,70.5 Z"/></g>
<g><path style="opacity:1" fill="#eed848" d="M 251.5,62.5 C 251.917,65.1589 252.917,67.4922 254.5,69.5C 254.5,69.8333 254.5,70.1667 254.5,70.5C 253.408,78.6745 253.408,87.0078 254.5,95.5C 253.5,95.5 252.5,95.5 251.5,95.5C 251.5,84.5 251.5,73.5 251.5,62.5 Z"/></g>
<g><path style="opacity:0.431" fill="#fbf5ac" d="M 351.5,97.5 C 351.5,96.8333 351.5,96.1667 351.5,95.5C 352.989,93.3549 353.989,91.0215 354.5,88.5C 356.652,86.3929 357.652,83.7262 357.5,80.5C 355.868,71.3433 350.535,68.3433 341.5,71.5C 340.472,73.3615 338.972,74.6948 337,75.5C 336.517,76.448 336.351,77.448 336.5,78.5C 333.726,81.7133 331.726,85.38 330.5,89.5C 328.484,91.249 326.818,93.249 325.5,95.5C 328.924,87.2072 333.091,79.2072 338,71.5C 343.683,67.6837 349.517,67.517 355.5,71C 359.945,76.5399 360.445,82.3732 357,88.5C 355.272,91.692 353.439,94.692 351.5,97.5 Z"/></g>
<g><path style="opacity:0.999" fill="#ebd749" d="M 354.5,88.5 C 354.451,85.6257 354.784,82.7923 355.5,80C 354.771,77.7518 353.771,75.5851 352.5,73.5C 345.695,71.0206 340.361,72.6872 336.5,78.5C 336.351,77.448 336.517,76.448 337,75.5C 338.972,74.6948 340.472,73.3615 341.5,71.5C 350.535,68.3433 355.868,71.3433 357.5,80.5C 357.652,83.7262 356.652,86.3929 354.5,88.5 Z"/></g>
<g><path style="opacity:1" fill="#fbd70b" d="M 159.5,128.5 C 162.927,133.016 165.593,138.016 167.5,143.5C 167.56,147.621 166.56,151.454 164.5,155C 158.549,157.592 153.216,156.758 148.5,152.5C 145.093,146.443 141.593,140.443 138,134.5C 137.329,133.748 136.496,133.414 135.5,133.5C 135.5,133.167 135.5,132.833 135.5,132.5C 131.44,121.632 125.94,111.632 119,102.5C 117.964,97.4127 119.13,92.9127 122.5,89C 125.833,88.3333 129.167,88.3333 132.5,89C 134.447,92.0699 136.947,94.5699 140,96.5C 140.249,99.1768 141.249,101.51 143,103.5C 143.497,106.146 143.664,108.813 143.5,111.5C 144.5,111.5 145.5,111.5 146.5,111.5C 146.5,112.833 146.5,114.167 146.5,115.5C 149.024,115.429 151.024,116.429 152.5,118.5C 153.667,121.833 154.833,125.167 156,128.5C 157.073,128.201 158.24,128.201 159.5,128.5 Z"/></g>
<g><path style="opacity:0.851" fill="#e8d342" d="M 140.5,94.5 C 147.337,105.502 153.67,116.836 159.5,128.5C 158.24,128.201 157.073,128.201 156,128.5C 154.833,125.167 153.667,121.833 152.5,118.5C 151.024,116.429 149.024,115.429 146.5,115.5C 146.5,114.167 146.5,112.833 146.5,111.5C 145.5,111.5 144.5,111.5 143.5,111.5C 143.664,108.813 143.497,106.146 143,103.5C 141.249,101.51 140.249,99.1768 140,96.5C 136.947,94.5699 134.447,92.0699 132.5,89C 129.167,88.3333 125.833,88.3333 122.5,89C 119.13,92.9127 117.964,97.4127 119,102.5C 125.94,111.632 131.44,121.632 135.5,132.5C 127.953,121.248 121.287,109.415 115.5,97C 115.57,96.2352 115.903,95.7352 116.5,95.5C 119.477,87.4934 125.144,84.8268 133.5,87.5C 136.059,89.6301 138.393,91.9634 140.5,94.5 Z"/></g>
<g><path style="opacity:1" fill="#efd233" d="M 351.5,95.5 C 351.5,96.1667 351.5,96.8333 351.5,97.5C 346.692,106.446 341.858,115.446 337,124.5C 334.888,128.278 332.388,131.778 329.5,135C 325.625,136.52 321.625,136.854 317.5,136C 315.34,135.004 313.673,133.504 312.5,131.5C 316.07,132.233 319.57,133.233 323,134.5C 326.089,134.438 328.589,133.272 330.5,131C 333.85,125.168 336.683,119.001 339,112.5C 339.662,110.187 340.162,107.854 340.5,105.5C 342.199,105.66 343.866,105.494 345.5,105C 347.163,102.346 348.496,99.5126 349.5,96.5C 350.183,96.1373 350.85,95.8039 351.5,95.5 Z"/></g>
<g><path style="opacity:0.973" fill="#e9d346" d="M 330.5,89.5 C 327.106,96.1506 323.606,102.817 320,109.5C 319.286,112.595 318.286,115.595 317,118.5C 312.946,121.418 311.446,125.418 312.5,130.5C 311.359,127.36 311.192,124.027 312,120.5C 316.397,111.982 320.897,103.649 325.5,95.5C 326.818,93.249 328.484,91.249 330.5,89.5 Z"/></g>
<g><path style="opacity:0.192" fill="#fef8bd" d="M 425.5,146.5 C 427.664,140.751 426.664,135.751 422.5,131.5C 421.583,130.873 420.583,130.539 419.5,130.5C 418.088,129.467 416.422,128.801 414.5,128.5C 411.15,129.843 407.817,131.177 404.5,132.5C 409.599,127.438 415.599,126.271 422.5,129C 428.74,134.146 429.74,139.98 425.5,146.5 Z"/></g>
<g><path style="opacity:1" fill="#fbd70a" d="M 419.5,130.5 C 423.087,135.119 424.253,140.452 423,146.5C 420.92,148.123 418.754,149.623 416.5,151C 415.748,151.671 415.414,152.504 415.5,153.5C 411.882,154.538 408.215,155.705 404.5,157C 402.41,158.588 400.743,160.422 399.5,162.5C 394.715,163.819 390.215,165.819 386,168.5C 385.667,168.167 385.333,167.833 385,167.5C 384.691,168.766 384.191,169.933 383.5,171C 381.004,172.08 378.67,173.414 376.5,175C 373.493,175.301 370.493,175.135 367.5,174.5C 363.835,170.919 362.668,166.585 364,161.5C 370.659,157.09 376.826,152.09 382.5,146.5C 388.063,146.363 392.73,144.197 396.5,140C 399.167,139.333 401.833,138.667 404.5,138C 407.863,132.319 412.863,129.819 419.5,130.5 Z"/></g>
<g><path style="opacity:0.775" fill="#ebce38" d="M 280.5,138.5 C 264.835,137.216 249.169,137.216 233.5,138.5C 241.363,136.165 249.53,135.165 258,135.5C 265.826,135.1 273.326,136.1 280.5,138.5 Z"/></g>
<g><path style="opacity:1" fill="#eedc56" d="M 419.5,130.5 C 420.583,130.539 421.583,130.873 422.5,131.5C 426.664,135.751 427.664,140.751 425.5,146.5C 423.225,150.307 419.892,152.641 415.5,153.5C 415.414,152.504 415.748,151.671 416.5,151C 418.754,149.623 420.92,148.123 423,146.5C 424.253,140.452 423.087,135.119 419.5,130.5 Z"/></g>
<g><path style="opacity:1" fill="#efd747" d="M 419.5,130.5 C 412.863,129.819 407.863,132.319 404.5,138C 401.833,138.667 399.167,139.333 396.5,140C 392.73,144.197 388.063,146.363 382.5,146.5C 389.561,141.446 396.894,136.779 404.5,132.5C 407.817,131.177 411.15,129.843 414.5,128.5C 416.422,128.801 418.088,129.467 419.5,130.5 Z"/></g>
<g><path style="opacity:1" fill="#fdd707" d="M 280.5,138.5 C 288.65,140.722 296.65,143.888 304.5,148C 306.134,148.494 307.801,148.66 309.5,148.5C 315.885,150.688 321.218,154.355 325.5,159.5C 327.056,163.667 329.389,167.334 332.5,170.5C 337.548,172.262 339.048,175.595 337,180.5C 337.333,180.167 337.667,179.833 338,179.5C 338.333,180.5 338.667,181.5 339,182.5C 343.918,184.862 346.918,189.196 348,195.5C 352.476,197.781 353.642,201.281 351.5,206C 353.038,209.323 354.204,212.823 355,216.5C 355.122,214.563 355.955,213.23 357.5,212.5C 358.813,215.998 359.813,219.664 360.5,223.5C 359.833,232.342 359.167,241.342 358.5,250.5C 355.38,259.979 353.047,269.646 351.5,279.5C 350.206,280.29 349.039,281.29 348,282.5C 346.396,285.409 344.896,288.409 343.5,291.5C 342.476,292.853 341.143,293.52 339.5,293.5C 339.07,297.102 337.237,299.769 334,301.5C 333.187,303.436 332.687,305.436 332.5,307.5C 328.793,312.208 324.46,316.208 319.5,319.5C 314.848,320.328 310.848,322.495 307.5,326C 300.307,328.76 293.64,332.26 287.5,336.5C 282.203,337.275 276.87,337.608 271.5,337.5C 271.5,338.5 271.5,339.5 271.5,340.5C 255.503,341.712 239.503,341.712 223.5,340.5C 222.657,338.827 221.324,337.66 219.5,337C 211.968,335.211 204.634,332.711 197.5,329.5C 194.275,326.02 190.275,324.02 185.5,323.5C 172.947,316.282 162.613,306.616 154.5,294.5C 150.49,287.157 146.657,280.157 143,273.5C 143.048,269.479 142.048,265.813 140,262.5C 139.399,256.912 138.066,251.578 136,246.5C 135.333,242.833 135.333,239.167 136,235.5C 136.333,237.833 136.667,240.167 137,242.5C 138.366,238.884 138.2,235.55 136.5,232.5C 137.475,224.547 138.142,216.547 138.5,208.5C 138.5,208.167 138.5,207.833 138.5,207.5C 140.167,207.5 141.833,207.5 143.5,207.5C 144.036,204.445 144.869,201.445 146,198.5C 149.111,194.613 151.444,190.28 153,185.5C 154.789,183.771 156.956,183.104 159.5,183.5C 159.343,182.127 159.51,180.793 160,179.5C 168.272,171.574 177.439,164.741 187.5,159C 189.192,157.693 190.525,156.193 191.5,154.5C 193.199,154.66 194.866,154.494 196.5,154C 208.423,147.701 220.756,142.534 233.5,138.5C 249.169,137.216 264.835,137.216 280.5,138.5 Z M 200.5,177.5 C 187.926,187.573 176.426,198.906 166,211.5C 164.906,213.078 164.072,214.745 163.5,216.5C 162.167,217.833 160.833,219.167 159.5,220.5C 161.156,213.522 164.156,207.189 168.5,201.5C 177.747,191.583 188.414,183.583 200.5,177.5 Z M 273.5,194.5 C 269.827,196 266.494,198 263.5,200.5C 262.153,201.028 260.819,201.195 259.5,201C 267.034,195.399 275.034,190.566 283.5,186.5C 284.696,186.846 284.696,187.346 283.5,188C 279.931,189.942 276.598,192.108 273.5,194.5 Z M 222.5,196.5 C 217.167,202.167 211.833,207.833 206.5,213.5C 201.181,217.976 195.681,222.31 190,226.5C 189.685,225.092 190.018,223.759 191,222.5C 193.04,220.63 194.873,218.63 196.5,216.5C 204.33,208.66 212.997,201.994 222.5,196.5 Z M 317.5,212.5 C 318.043,212.56 318.376,212.893 318.5,213.5C 317.469,214.7 316.635,216.034 316,217.5C 307.975,224.031 300.142,230.698 292.5,237.5C 290.566,238.11 288.899,239.11 287.5,240.5C 286.508,240.672 285.842,240.338 285.5,239.5C 286.5,239.167 287.167,238.5 287.5,237.5C 297.5,229.167 307.5,220.833 317.5,212.5 Z M 220.5,260.5 C 215.868,263.798 211.534,267.464 207.5,271.5C 202.043,276.067 196.377,280.4 190.5,284.5C 188.545,282.139 187.712,279.472 188,276.5C 197.977,271.437 207.477,265.77 216.5,259.5C 218.941,258.443 221.275,257.11 223.5,255.5C 223.833,255.667 224.167,255.833 224.5,256C 222.959,257.371 221.625,258.871 220.5,260.5 Z M 277.5,283.5 C 278.239,283.369 278.906,283.536 279.5,284C 273.851,289.297 268.518,294.797 263.5,300.5C 259.06,303.763 254.727,307.263 250.5,311C 247.395,312.868 244.062,314.035 240.5,314.5C 240.782,313.222 241.449,312.222 242.5,311.5C 254.191,302.136 265.858,292.803 277.5,283.5 Z M 209.5,304.5 C 210.376,304.369 211.043,304.702 211.5,305.5C 210.988,308.351 209.321,309.684 206.5,309.5C 206.721,307.336 207.721,305.67 209.5,304.5 Z"/></g>
<g><path style="opacity:0.192" fill="#e4ca42" d="M 280.5,138.5 C 290.931,139.865 300.597,143.198 309.5,148.5C 307.801,148.66 306.134,148.494 304.5,148C 296.65,143.888 288.65,140.722 280.5,138.5 Z"/></g>
<g><path style="opacity:0.584" fill="#e8cf49" d="M 135.5,133.5 C 136.496,133.414 137.329,133.748 138,134.5C 141.593,140.443 145.093,146.443 148.5,152.5C 153.216,156.758 158.549,157.592 164.5,155C 166.56,151.454 167.56,147.621 167.5,143.5C 169.912,154.137 165.578,159.303 154.5,159C 151.461,157.969 148.961,156.135 147,153.5C 142.902,146.969 139.069,140.302 135.5,133.5 Z"/></g>
<g><path style="opacity:0.714" fill="#ecd24d" d="M 233.5,138.5 C 220.756,142.534 208.423,147.701 196.5,154C 194.866,154.494 193.199,154.66 191.5,154.5C 204.615,147.015 218.615,141.681 233.5,138.5 Z"/></g>
<g><path style="opacity:0.757" fill="#e7d14e" d="M 382.5,146.5 C 376.826,152.09 370.659,157.09 364,161.5C 362.668,166.585 363.835,170.919 367.5,174.5C 364.265,173.405 362.432,171.072 362,167.5C 361.525,162.93 363.025,159.096 366.5,156C 371.724,152.559 377.057,149.392 382.5,146.5 Z"/></g>
<g><path style="opacity:0.475" fill="#f3e46d" d="M 415.5,153.5 C 410.572,157.307 405.239,160.64 399.5,163.5C 399.5,163.167 399.5,162.833 399.5,162.5C 400.743,160.422 402.41,158.588 404.5,157C 408.215,155.705 411.882,154.538 415.5,153.5 Z"/></g>
<g><path style="opacity:1" fill="#eed850" d="M 95.5,167.5 C 87.0945,166.494 78.7612,165.161 70.5,163.5C 59.7334,166.42 57.7334,172.254 64.5,181C 73.2223,182.711 81.889,184.711 90.5,187C 93.7533,188.115 96.42,189.949 98.5,192.5C 89.079,189.028 79.4123,186.361 69.5,184.5C 65.7861,183.52 62.6194,181.52 60,178.5C 57.1651,166.01 61.9985,160.51 74.5,162C 81.7414,163.392 88.7414,165.226 95.5,167.5 Z"/></g>
<g><path style="opacity:1" fill="#fad610" d="M 95.5,167.5 C 96.1667,167.5 96.8333,167.5 97.5,167.5C 108.101,170.795 117.435,176.129 125.5,183.5C 126.32,185.14 127.153,186.807 128,188.5C 128.188,192.378 128.354,196.044 128.5,199.5C 124.616,203.226 119.949,204.393 114.5,203C 108.991,199.637 103.658,196.137 98.5,192.5C 96.42,189.949 93.7533,188.115 90.5,187C 81.889,184.711 73.2223,182.711 64.5,181C 57.7334,172.254 59.7334,166.42 70.5,163.5C 78.7612,165.161 87.0945,166.494 95.5,167.5 Z"/></g>
<g><path style="opacity:0.773" fill="#eacc35" d="M 399.5,162.5 C 399.5,162.833 399.5,163.167 399.5,163.5C 392.356,167.908 385.023,172.074 377.5,176C 374.833,176.667 372.167,176.667 369.5,176C 368.584,175.722 367.918,175.222 367.5,174.5C 370.493,175.135 373.493,175.301 376.5,175C 378.67,173.414 381.004,172.08 383.5,171C 384.191,169.933 384.691,168.766 385,167.5C 385.333,167.833 385.667,168.167 386,168.5C 390.215,165.819 394.715,163.819 399.5,162.5 Z"/></g>
<g><path style="opacity:0.161" fill="#fbf6ab" d="M 97.5,167.5 C 96.8333,167.5 96.1667,167.5 95.5,167.5C 88.7414,165.226 81.7414,163.392 74.5,162C 61.9985,160.51 57.1651,166.01 60,178.5C 62.6194,181.52 65.7861,183.52 69.5,184.5C 58.4592,182.635 54.9592,176.301 59,165.5C 60.5,164 62,162.5 63.5,161C 68.5,160.333 73.5,160.333 78.5,161C 84.447,162.871 90.447,164.538 96.5,166C 97.056,166.383 97.3893,166.883 97.5,167.5 Z"/></g>
<g><path style="opacity:1" fill="#f1d32b" d="M 325.5,159.5 C 342.707,173.078 353.373,190.745 357.5,212.5C 355.955,213.23 355.122,214.563 355,216.5C 354.204,212.823 353.038,209.323 351.5,206C 353.642,201.281 352.476,197.781 348,195.5C 346.918,189.196 343.918,184.862 339,182.5C 338.667,181.5 338.333,180.5 338,179.5C 337.667,179.833 337.333,180.167 337,180.5C 339.048,175.595 337.548,172.262 332.5,170.5C 329.389,167.334 327.056,163.667 325.5,159.5 Z"/></g>
<g><path style="opacity:0.502" fill="#f1da56" d="M 200.5,177.5 C 188.414,183.583 177.747,191.583 168.5,201.5C 169.694,198.549 170.694,195.549 171.5,192.5C 174.99,192.849 177.323,191.349 178.5,188C 182.398,186.621 185.731,184.288 188.5,181C 193.633,178.265 198.633,175.265 203.5,172C 205.833,171.333 208.167,171.333 210.5,172C 207.537,175.303 204.203,177.136 200.5,177.5 Z"/></g>
<g><path style="opacity:0.569" fill="#f4dd5a" d="M 273.5,194.5 C 276.598,192.108 279.931,189.942 283.5,188C 284.696,187.346 284.696,186.846 283.5,186.5C 275.034,190.566 267.034,195.399 259.5,201C 260.819,201.195 262.153,201.028 263.5,200.5C 261.612,202.269 259.279,203.602 256.5,204.5C 255.614,205.325 255.281,206.325 255.5,207.5C 253.801,207.66 252.134,207.494 250.5,207C 254.5,204.333 257.833,201 260.5,197C 265.039,194.108 269.539,191.275 274,188.5C 278.335,186.565 282.835,185.232 287.5,184.5C 287.649,185.552 287.483,186.552 287,187.5C 283.15,191.063 278.65,193.396 273.5,194.5 Z"/></g>
<g><path style="opacity:0.196" fill="#e2c954" d="M 125.5,183.5 C 127.624,184.031 129.124,185.365 130,187.5C 131.006,191.802 130.506,195.802 128.5,199.5C 128.354,196.044 128.188,192.378 128,188.5C 127.153,186.807 126.32,185.14 125.5,183.5 Z"/></g>
<g><path style="opacity:0.373" fill="#f4dd5e" d="M 200.5,177.5 C 200.833,177.5 201.167,177.5 201.5,177.5C 197.182,182.942 192.015,187.608 186,191.5C 185.333,192.833 184.667,194.167 184,195.5C 176.266,201.733 169.433,208.733 163.5,216.5C 164.072,214.745 164.906,213.078 166,211.5C 176.426,198.906 187.926,187.573 200.5,177.5 Z"/></g>
<g><path style="opacity:1" fill="#f0d43d" d="M 191.5,154.5 C 190.525,156.193 189.192,157.693 187.5,159C 177.439,164.741 168.272,171.574 160,179.5C 159.51,180.793 159.343,182.127 159.5,183.5C 156.956,183.104 154.789,183.771 153,185.5C 151.444,190.28 149.111,194.613 146,198.5C 144.869,201.445 144.036,204.445 143.5,207.5C 141.833,207.5 140.167,207.5 138.5,207.5C 149.167,182.833 166.833,165.167 191.5,154.5 Z"/></g>
<g><path style="opacity:1" fill="#f5d935" d="M 206.5,213.5 C 211.833,207.833 217.167,202.167 222.5,196.5C 212.997,201.994 204.33,208.66 196.5,216.5C 195.882,210.458 198.549,207.125 204.5,206.5C 206.103,205.101 207.437,203.435 208.5,201.5C 209.736,200.754 211.07,200.421 212.5,200.5C 212.351,199.448 212.517,198.448 213,197.5C 217.892,192.631 223.725,190.464 230.5,191C 222.912,199.093 214.912,206.593 206.5,213.5 Z"/></g>
<g><path style="opacity:0.043" fill="#fcf6a9" d="M 466.5,221.5 C 466.167,221.5 465.833,221.5 465.5,221.5C 461.801,218.628 457.635,216.961 453,216.5C 435.163,217.191 417.33,217.858 399.5,218.5C 399.5,218.167 399.5,217.833 399.5,217.5C 420.108,215.785 440.775,215.285 461.5,216C 464.079,217.076 465.746,218.909 466.5,221.5 Z"/></g>
<g><path style="opacity:0.961" fill="#ebd649" d="M 465.5,221.5 C 465.5,222.833 465.5,224.167 465.5,225.5C 464.399,224.152 463.399,222.652 462.5,221C 460.956,220.71 459.623,220.044 458.5,219C 446.659,218.174 434.993,218.341 423.5,219.5C 415.316,219.826 407.316,219.492 399.5,218.5C 417.33,217.858 435.163,217.191 453,216.5C 457.635,216.961 461.801,218.628 465.5,221.5 Z"/></g>
<g><path style="opacity:1" fill="#fbd708" d="M 399.5,218.5 C 407.316,219.492 415.316,219.826 423.5,219.5C 433.506,219.334 443.506,219.5 453.5,220C 456.778,221.809 460.111,223.309 463.5,224.5C 464.157,227.841 462.824,229.841 459.5,230.5C 459.709,231.086 460.043,231.586 460.5,232C 457.755,233.717 454.755,234.883 451.5,235.5C 434.17,236.537 416.837,236.537 399.5,235.5C 399.5,236.833 399.5,238.167 399.5,239.5C 399.5,240.167 399.5,240.833 399.5,241.5C 393.077,241.791 386.744,241.458 380.5,240.5C 374.852,233.598 375.186,227.098 381.5,221C 387.501,220.052 393.501,219.219 399.5,218.5 Z"/></g>
<g><path style="opacity:0.933" fill="#ebd64b" d="M 399.5,217.5 C 399.5,217.833 399.5,218.167 399.5,218.5C 393.501,219.219 387.501,220.052 381.5,221C 375.186,227.098 374.852,233.598 380.5,240.5C 376.088,238.541 373.755,235.041 373.5,230C 374.233,225.276 376.566,221.609 380.5,219C 386.827,218.349 393.16,217.849 399.5,217.5 Z"/></g>
<g><path style="opacity:1" fill="#f7d728" d="M 294.5,237.5 C 301.858,232.176 309.024,226.509 316,220.5C 317.185,218.13 318.351,215.797 319.5,213.5C 319.139,211.582 318.472,211.249 317.5,212.5C 307.5,220.833 297.5,229.167 287.5,237.5C 288.479,233.528 290.812,230.861 294.5,229.5C 294.884,227.071 295.551,224.737 296.5,222.5C 298.5,222.5 300.5,222.5 302.5,222.5C 302.5,221.167 302.5,219.833 302.5,218.5C 303.5,218.5 304.5,218.5 305.5,218.5C 305.421,217.07 305.754,215.736 306.5,214.5C 308.391,213.689 309.724,212.356 310.5,210.5C 311.908,209.757 313.241,208.923 314.5,208C 316.657,207.922 318.657,207.755 320.5,207.5C 321.877,209.289 322.877,211.289 323.5,213.5C 321.276,216.153 319.609,219.153 318.5,222.5C 313.304,224.988 308.637,228.321 304.5,232.5C 306.978,234.436 306.978,236.436 304.5,238.5C 304.937,236.405 303.937,234.738 301.5,233.5C 299.6,235.616 297.267,236.949 294.5,237.5 Z"/></g>
<g><path style="opacity:0.976" fill="#f5de57" d="M 317.5,212.5 C 318.472,211.249 319.139,211.582 319.5,213.5C 318.351,215.797 317.185,218.13 316,220.5C 309.024,226.509 301.858,232.176 294.5,237.5C 293.833,237.5 293.167,237.5 292.5,237.5C 300.142,230.698 307.975,224.031 316,217.5C 316.635,216.034 317.469,214.7 318.5,213.5C 318.376,212.893 318.043,212.56 317.5,212.5 Z"/></g>
<g><path style="opacity:1" fill="#f4d625" d="M 423.5,219.5 C 434.993,218.341 446.659,218.174 458.5,219C 459.623,220.044 460.956,220.71 462.5,221C 463.399,222.652 464.399,224.152 465.5,225.5C 465.442,228.664 464.776,231.664 463.5,234.5C 461.516,234.383 459.85,235.05 458.5,236.5C 449.129,236.85 440.129,237.85 431.5,239.5C 431.5,240.167 431.167,240.5 430.5,240.5C 420.347,239.506 410.014,239.172 399.5,239.5C 399.5,238.167 399.5,236.833 399.5,235.5C 416.837,236.537 434.17,236.537 451.5,235.5C 454.755,234.883 457.755,233.717 460.5,232C 460.043,231.586 459.709,231.086 459.5,230.5C 462.824,229.841 464.157,227.841 463.5,224.5C 460.111,223.309 456.778,221.809 453.5,220C 443.506,219.5 433.506,219.334 423.5,219.5 Z"/></g>
<g><path style="opacity:0.32" fill="#f2e376" d="M 465.5,221.5 C 465.833,221.5 466.167,221.5 466.5,221.5C 470.103,230.411 467.103,236.244 457.5,239C 448.84,239.5 440.173,239.666 431.5,239.5C 440.129,237.85 449.129,236.85 458.5,236.5C 459.85,235.05 461.516,234.383 463.5,234.5C 464.776,231.664 465.442,228.664 465.5,225.5C 465.5,224.167 465.5,222.833 465.5,221.5 Z"/></g>
<g><path style="opacity:0.306" fill="#fdf7af" d="M 84.5,243.5 C 80.1667,243.5 75.8333,243.5 71.5,243.5C 68.9039,242.735 66.2372,242.401 63.5,242.5C 54.7227,240.625 45.7227,240.125 36.5,241C 31.8468,244.788 30.3468,249.622 32,255.5C 33.0391,256.71 34.2058,257.71 35.5,258.5C 36.1667,259.5 36.8333,260.5 37.5,261.5C 34.9193,260.425 32.7527,258.758 31,256.5C 27.5615,244.342 32.0615,238.342 44.5,238.5C 58.0055,240.003 71.3389,241.67 84.5,243.5 Z"/></g>
<g><path style="opacity:0.114" fill="#f7ef8f" d="M 399.5,239.5 C 410.014,239.172 420.347,239.506 430.5,240.5C 420.159,240.649 409.826,240.982 399.5,241.5C 399.5,240.833 399.5,240.167 399.5,239.5 Z"/></g>
<g><path style="opacity:0.949" fill="#ead654" d="M 63.5,242.5 C 54.8407,241.75 46.1741,241.584 37.5,242C 31.5635,246.852 30.8968,252.352 35.5,258.5C 34.2058,257.71 33.0391,256.71 32,255.5C 30.3468,249.622 31.8468,244.788 36.5,241C 45.7227,240.125 54.7227,240.625 63.5,242.5 Z"/></g>
<g><path style="opacity:1" fill="#fbd70d" d="M 63.5,242.5 C 66.2372,242.401 68.9039,242.735 71.5,243.5C 71.5,243.833 71.5,244.167 71.5,244.5C 86.0061,246.101 100.673,247.601 115.5,249C 122.642,254.14 123.308,260.14 117.5,267C 117.728,267.399 118.062,267.565 118.5,267.5C 115.474,269.019 112.141,269.685 108.5,269.5C 102.405,269.224 96.4052,268.558 90.5,267.5C 90.3893,266.883 90.056,266.383 89.5,266C 75.5138,264.242 61.5138,262.742 47.5,261.5C 44.2869,261.19 41.2869,261.523 38.5,262.5C 37.8333,262.5 37.5,262.167 37.5,261.5C 36.8333,260.5 36.1667,259.5 35.5,258.5C 30.8968,252.352 31.5635,246.852 37.5,242C 46.1741,241.584 54.8407,241.75 63.5,242.5 Z"/></g>
<g><path style="opacity:0.351" fill="#f3e57e" d="M 71.5,244.5 C 71.5,244.167 71.5,243.833 71.5,243.5C 75.8333,243.5 80.1667,243.5 84.5,243.5C 89.4338,243.229 94.1004,243.896 98.5,245.5C 89.4978,245.214 80.4978,244.881 71.5,244.5 Z"/></g>
<g><path style="opacity:1" fill="#eeda4f" d="M 292.5,237.5 C 291.449,240.158 290.115,242.658 288.5,245C 285.29,246.201 282.623,248.201 280.5,251C 276.388,252.095 273.055,254.428 270.5,258C 267.354,259.657 264.354,261.491 261.5,263.5C 270.167,255.833 278.833,248.167 287.5,240.5C 288.899,239.11 290.566,238.11 292.5,237.5 Z"/></g>
<g><path style="opacity:0.176" fill="#f7e14f" d="M 220.5,260.5 C 221.625,258.871 222.959,257.371 224.5,256C 224.167,255.833 223.833,255.667 223.5,255.5C 221.275,257.11 218.941,258.443 216.5,259.5C 216.5,258.5 216.5,257.5 216.5,256.5C 218.737,255.551 221.071,254.884 223.5,254.5C 223.5,253.5 223.5,252.5 223.5,251.5C 225.46,250.862 227.293,250.862 229,251.5C 230.489,249.668 232.322,248.835 234.5,249C 229.94,253.069 225.274,256.902 220.5,260.5 Z"/></g>
<g><path style="opacity:1" fill="#ebd039" d="M 138.5,208.5 C 138.142,216.547 137.475,224.547 136.5,232.5C 138.2,235.55 138.366,238.884 137,242.5C 136.667,240.167 136.333,237.833 136,235.5C 135.333,239.167 135.333,242.833 136,246.5C 138.066,251.578 139.399,256.912 140,262.5C 142.048,265.813 143.048,269.479 143,273.5C 146.657,280.157 150.49,287.157 154.5,294.5C 133.86,268.638 128.527,239.971 138.5,208.5 Z"/></g>
<g><path style="opacity:0.11" fill="#faf090" d="M 38.5,262.5 C 41.2869,261.523 44.2869,261.19 47.5,261.5C 49.5,262.167 51.5,262.833 53.5,263.5C 48.4725,263.497 43.4725,263.164 38.5,262.5 Z"/></g>
<g><path style="opacity:0.514" fill="#e1ca44" d="M 71.5,244.5 C 80.4978,244.881 89.4978,245.214 98.5,245.5C 104.631,245.359 110.631,246.193 116.5,248C 118.286,248.785 119.786,249.951 121,251.5C 122.52,255.375 122.854,259.375 122,263.5C 121.051,265.093 119.885,266.426 118.5,267.5C 118.062,267.565 117.728,267.399 117.5,267C 123.308,260.14 122.642,254.14 115.5,249C 100.673,247.601 86.0061,246.101 71.5,244.5 Z"/></g>
<g><path style="opacity:0.224" fill="#f9ef9c" d="M 63.5,264.5 C 69.0506,264.527 74.3839,265.194 79.5,266.5C 73.916,266.745 68.5826,266.078 63.5,264.5 Z"/></g>
<g><path style="opacity:0.42" fill="#edda59" d="M 47.5,261.5 C 61.5138,262.742 75.5138,264.242 89.5,266C 90.056,266.383 90.3893,266.883 90.5,267.5C 86.7307,267.756 83.0641,267.423 79.5,266.5C 74.3839,265.194 69.0506,264.527 63.5,264.5C 60.1194,264.54 56.7861,264.207 53.5,263.5C 51.5,262.833 49.5,262.167 47.5,261.5 Z"/></g>
<g><path style="opacity:1" fill="#fdf9a0" d="M 285.5,239.5 C 285.842,240.338 286.508,240.672 287.5,240.5C 278.833,248.167 270.167,255.833 261.5,263.5C 257.134,266.016 253.134,269.016 249.5,272.5C 247.302,272.591 246.969,271.925 248.5,270.5C 253.275,265.795 257.941,260.962 262.5,256C 264.725,255.439 266.725,254.439 268.5,253C 272.962,249.781 276.962,246.114 280.5,242C 282.193,241.153 283.86,240.32 285.5,239.5 Z"/></g>
<g><path style="opacity:1" fill="#f4d822" d="M 253.5,312.5 C 256.771,309.732 259.938,306.732 263,303.5C 263.483,302.552 263.649,301.552 263.5,300.5C 275.168,289.332 287.002,278.332 299,267.5C 299.688,266.668 299.521,266.002 298.5,265.5C 296.098,267.909 293.431,269.909 290.5,271.5C 294.103,267.395 297.936,263.395 302,259.5C 303.225,259.862 304.391,260.362 305.5,261C 305.307,262.645 305.14,264.479 305,266.5C 300.808,268.684 298.142,272.017 297,276.5C 294.646,278.848 291.979,279.514 289,278.5C 286.493,280.189 284.993,282.522 284.5,285.5C 285.025,286.192 285.692,286.692 286.5,287C 274.967,292.259 265.633,300.092 258.5,310.5C 256.925,311.456 255.258,312.123 253.5,312.5 Z"/></g>
<g><path style="opacity:0.737" fill="#e7cd49" d="M 360.5,223.5 C 361.304,238.015 360.137,252.348 357,266.5C 355.666,271.154 353.833,275.487 351.5,279.5C 353.047,269.646 355.38,259.979 358.5,250.5C 359.167,241.342 359.833,232.342 360.5,223.5 Z"/></g>
<g><path style="opacity:0.106" fill="#faea65" d="M 263.5,300.5 C 268.518,294.797 273.851,289.297 279.5,284C 278.906,283.536 278.239,283.369 277.5,283.5C 281.806,279.529 286.14,275.529 290.5,271.5C 293.431,269.909 296.098,267.909 298.5,265.5C 299.521,266.002 299.688,266.668 299,267.5C 287.002,278.332 275.168,289.332 263.5,300.5 Z"/></g>
<g><path style="opacity:0.467" fill="#edd245" d="M 216.5,259.5 C 207.477,265.77 197.977,271.437 188,276.5C 187.712,279.472 188.545,282.139 190.5,284.5C 196.377,280.4 202.043,276.067 207.5,271.5C 207.256,274.263 205.923,276.429 203.5,278C 200.569,279.924 197.903,282.257 195.5,285C 188.837,288.186 185.837,286.019 186.5,278.5C 186.621,277.106 186.954,275.772 187.5,274.5C 193.137,270.541 198.804,266.541 204.5,262.5C 208.548,261.401 212.548,260.401 216.5,259.5 Z"/></g>
<g><path style="opacity:1" fill="#f0da3b" d="M 242.5,274.5 C 236.37,280.46 230.036,286.293 223.5,292C 224.167,292.667 224.833,292.667 225.5,292C 228.397,289.59 231.397,287.423 234.5,285.5C 231.957,288.78 228.957,291.613 225.5,294C 224.128,294.402 222.795,294.902 221.5,295.5C 220.411,298.679 218.577,301.345 216,303.5C 215.503,305.81 215.337,308.143 215.5,310.5C 212.531,311.329 209.531,311.495 206.5,311C 204.845,309.556 204.178,307.722 204.5,305.5C 205.5,305.5 206.5,305.5 207.5,305.5C 207.281,304.325 207.614,303.325 208.5,302.5C 215.737,296.086 223.07,289.92 230.5,284C 233.206,281.629 235.539,278.963 237.5,276C 239.025,274.991 240.692,274.491 242.5,274.5 Z M 209.5,304.5 C 207.721,305.67 206.721,307.336 206.5,309.5C 209.321,309.684 210.988,308.351 211.5,305.5C 211.043,304.702 210.376,304.369 209.5,304.5 Z"/></g>
<g><path style="opacity:1" fill="#fbed67" d="M 248.5,270.5 C 246.969,271.925 247.302,272.591 249.5,272.5C 249.141,274.371 248.141,275.871 246.5,277C 241.996,279.208 237.996,282.042 234.5,285.5C 231.397,287.423 228.397,289.59 225.5,292C 224.833,292.667 224.167,292.667 223.5,292C 230.036,286.293 236.37,280.46 242.5,274.5C 244.223,272.782 246.223,271.449 248.5,270.5 Z"/></g>
<g><path style="opacity:1" fill="#fdf8b0" d="M 305.5,301.5 C 302.166,303.985 298.666,306.319 295,308.5C 294.5,308.167 294,307.833 293.5,307.5C 294.887,305.79 296.221,304.123 297.5,302.5C 306.48,294.522 315.48,286.522 324.5,278.5C 325.583,279.365 325.749,280.365 325,281.5C 318.968,288.698 312.468,295.364 305.5,301.5 Z"/></g>
<g><path style="opacity:1" fill="#f1d739" d="M 305.5,301.5 C 312.468,295.364 318.968,288.698 325,281.5C 325.749,280.365 325.583,279.365 324.5,278.5C 315.48,286.522 306.48,294.522 297.5,302.5C 297.703,300.956 298.37,299.622 299.5,298.5C 299.291,297.914 298.957,297.414 298.5,297C 299.833,296.667 301.167,296.333 302.5,296C 301.833,295.667 301.167,295.333 300.5,295C 306.96,293.874 310.793,290.04 312,283.5C 315.835,279.224 320.668,277.224 326.5,277.5C 326.66,279.199 326.494,280.866 326,282.5C 324.165,284.449 322.999,286.783 322.5,289.5C 317.97,292.737 313.636,296.237 309.5,300C 308.255,300.791 306.922,301.291 305.5,301.5 Z"/></g>
<g><path style="opacity:0.933" fill="#edd347" d="M 351.5,279.5 C 347.159,290.181 340.826,299.514 332.5,307.5C 332.687,305.436 333.187,303.436 334,301.5C 337.237,299.769 339.07,297.102 339.5,293.5C 341.143,293.52 342.476,292.853 343.5,291.5C 344.896,288.409 346.396,285.409 348,282.5C 349.039,281.29 350.206,280.29 351.5,279.5 Z"/></g>
<g><path style="opacity:0.184" fill="#f8f094" d="M 399.5,290.5 C 405.102,293.771 410.102,297.771 414.5,302.5C 413.022,302.762 411.689,302.429 410.5,301.5C 407.393,298.44 404.059,295.606 400.5,293C 399.748,292.329 399.414,291.496 399.5,290.5 Z"/></g>
<g><path style="opacity:0.588" fill="#f0dc5c" d="M 277.5,283.5 C 265.858,292.803 254.191,302.136 242.5,311.5C 242.33,310.178 242.663,309.011 243.5,308C 245.757,306.55 248.09,305.383 250.5,304.5C 250.316,301.679 251.649,300.012 254.5,299.5C 255.386,298.675 255.719,297.675 255.5,296.5C 259.76,295.827 263.093,293.661 265.5,290C 269.294,289.544 271.961,287.544 273.5,284C 274.793,283.51 276.127,283.343 277.5,283.5 Z"/></g>
<g><path style="opacity:1" fill="#f1d62e" d="M 399.5,290.5 C 399.414,291.496 399.748,292.329 400.5,293C 404.059,295.606 407.393,298.44 410.5,301.5C 411.689,302.429 413.022,302.762 414.5,302.5C 414.511,304.017 415.177,305.184 416.5,306C 423.778,312.457 431.444,318.291 439.5,323.5C 440.715,327.301 440.715,330.967 439.5,334.5C 439.808,332.076 439.474,329.743 438.5,327.5C 434.402,324.274 430.069,321.274 425.5,318.5C 424.548,316.955 424.215,315.288 424.5,313.5C 420.812,313.822 418.145,312.322 416.5,309C 414.527,308.505 412.527,308.338 410.5,308.5C 409.514,303.929 406.68,300.929 402,299.5C 399.016,293.017 394.183,288.351 387.5,285.5C 385.774,283.561 384.107,281.727 382.5,280C 373,278.833 368.833,283 370,292.5C 371.438,293.9 372.271,295.567 372.5,297.5C 367.811,294.012 366.311,289.345 368,283.5C 372.689,276.187 378.855,274.687 386.5,279C 391.027,282.699 395.361,286.532 399.5,290.5 Z"/></g>
<g><path style="opacity:1" fill="#f1dc52" d="M 263.5,300.5 C 263.649,301.552 263.483,302.552 263,303.5C 259.938,306.732 256.771,309.732 253.5,312.5C 249.261,314.942 244.928,315.609 240.5,314.5C 244.062,314.035 247.395,312.868 250.5,311C 254.727,307.263 259.06,303.763 263.5,300.5 Z"/></g>
<g><path style="opacity:1" fill="#fad70f" d="M 439.5,334.5 C 438.56,339.162 435.56,341.162 430.5,340.5C 428.833,340.333 427.167,340.167 425.5,340C 423.229,337.218 420.563,335.051 417.5,333.5C 416.833,333.5 416.167,333.5 415.5,333.5C 413.251,332.92 411.585,331.587 410.5,329.5C 408.093,325.424 404.76,322.424 400.5,320.5C 390.79,313.309 381.457,305.642 372.5,297.5C 372.271,295.567 371.438,293.9 370,292.5C 368.833,283 373,278.833 382.5,280C 384.107,281.727 385.774,283.561 387.5,285.5C 394.183,288.351 399.016,293.017 402,299.5C 406.68,300.929 409.514,303.929 410.5,308.5C 412.527,308.338 414.527,308.505 416.5,309C 418.145,312.322 420.812,313.822 424.5,313.5C 424.215,315.288 424.548,316.955 425.5,318.5C 430.069,321.274 434.402,324.274 438.5,327.5C 439.474,329.743 439.808,332.076 439.5,334.5 Z"/></g>
<g><path style="opacity:0.204" fill="#faf59e" d="M 414.5,302.5 C 423.195,309.206 431.529,316.206 439.5,323.5C 431.444,318.291 423.778,312.457 416.5,306C 415.177,305.184 414.511,304.017 414.5,302.5 Z"/></g>
<g><path style="opacity:0.318" fill="#e4ca3c" d="M 319.5,319.5 C 310.036,327.235 299.369,332.901 287.5,336.5C 293.64,332.26 300.307,328.76 307.5,326C 310.848,322.495 314.848,320.328 319.5,319.5 Z"/></g>
<g><path style="opacity:0.29" fill="#f7eb87" d="M 400.5,320.5 C 404.76,322.424 408.093,325.424 410.5,329.5C 407.732,327.913 405.065,326.08 402.5,324C 401.695,322.887 401.028,321.721 400.5,320.5 Z"/></g>
<g><path style="opacity:1" fill="#fbd708" d="M 120.5,342.5 C 113.646,342.539 107.646,344.705 102.5,349C 98.9317,350.618 95.265,351.951 91.5,353C 90.6195,353.708 89.9528,354.542 89.5,355.5C 85.8453,354.925 82.8453,355.925 80.5,358.5C 77.7814,358.397 75.1147,358.731 72.5,359.5C 69.0684,359.286 66.4018,357.786 64.5,355C 64.6976,351.594 64.8643,348.094 65,344.5C 70.0586,342.104 74.8919,339.438 79.5,336.5C 85.3414,336.289 90.3414,334.122 94.5,330C 101.869,328.978 108.536,326.312 114.5,322C 121.037,318.994 126.537,320.161 131,325.5C 132.213,330.382 131.046,334.548 127.5,338C 124.686,339.054 122.353,340.554 120.5,342.5 Z"/></g>
<g><path style="opacity:0.733" fill="#ecd13a" d="M 185.5,323.5 C 190.275,324.02 194.275,326.02 197.5,329.5C 204.634,332.711 211.968,335.211 219.5,337C 221.324,337.66 222.657,338.827 223.5,340.5C 209.501,337.494 196.834,331.828 185.5,323.5 Z"/></g>
<g><path style="opacity:0.275" fill="#fdf6ac" d="M 92.5,329.5 C 88.4734,332.398 84.14,334.732 79.5,336.5C 77.8828,337.038 76.2161,337.371 74.5,337.5C 80.1848,334.266 86.1848,331.599 92.5,329.5 Z"/></g>
<g><path style="opacity:0.851" fill="#e8cf3b" d="M 355.5,339.5 C 343.132,332.875 336.465,336.541 335.5,350.5C 332.272,341.64 335.438,335.974 345,333.5C 349.249,334.369 352.749,336.369 355.5,339.5 Z"/></g>
<g><path style="opacity:0.635" fill="#efe376" d="M 439.5,323.5 C 444.629,328.501 444.796,333.834 440,339.5C 434.65,344.283 429.15,344.616 423.5,340.5C 421.5,338.167 419.5,335.833 417.5,333.5C 420.563,335.051 423.229,337.218 425.5,340C 427.167,340.167 428.833,340.333 430.5,340.5C 435.56,341.162 438.56,339.162 439.5,334.5C 440.715,330.967 440.715,327.301 439.5,323.5 Z"/></g>
<g><path style="opacity:0.02" fill="#fdf49a" d="M 415.5,333.5 C 416.167,333.5 416.833,333.5 417.5,333.5C 419.5,335.833 421.5,338.167 423.5,340.5C 420.21,338.876 417.543,336.543 415.5,333.5 Z"/></g>
<g><path style="opacity:0.216" fill="#e0ca40" d="M 120.5,342.5 C 122.353,340.554 124.686,339.054 127.5,338C 131.046,334.548 132.213,330.382 131,325.5C 126.537,320.161 121.037,318.994 114.5,322C 108.536,326.312 101.869,328.978 94.5,330C 90.3414,334.122 85.3414,336.289 79.5,336.5C 84.14,334.732 88.4734,332.398 92.5,329.5C 100.973,326.462 109.639,322.962 118.5,319C 129.894,318.734 134.394,324.234 132,335.5C 128.861,338.986 125.027,341.319 120.5,342.5 Z"/></g>
<g><path style="opacity:1" fill="#fbd70c" d="M 355.5,339.5 C 355.833,339.5 356.167,339.5 356.5,339.5C 356.351,340.552 356.517,341.552 357,342.5C 360.563,345.275 363.896,348.275 367,351.5C 367.483,352.448 367.649,353.448 367.5,354.5C 369.95,354.298 372.283,354.631 374.5,355.5C 383.09,363.343 390.756,372.009 397.5,381.5C 398.851,386.536 401.018,391.202 404,395.5C 404.789,397.712 404.622,399.712 403.5,401.5C 402.426,403.279 401.093,404.946 399.5,406.5C 395.893,407.489 392.226,407.823 388.5,407.5C 384.868,404.263 382.201,400.263 380.5,395.5C 380.649,394.448 380.483,393.448 380,392.5C 374.59,389.018 371.756,384.018 371.5,377.5C 370.178,377.67 369.011,377.337 368,376.5C 367.784,374.616 367.117,372.949 366,371.5C 365.667,371.833 365.333,372.167 365,372.5C 364.167,371.5 363.333,370.5 362.5,369.5C 361.914,369.709 361.414,370.043 361,370.5C 360.205,366.705 357.872,364.705 354,364.5C 350.877,362.351 348.044,359.851 345.5,357C 342.513,354.508 339.18,352.675 335.5,351.5C 335.5,351.167 335.5,350.833 335.5,350.5C 336.465,336.541 343.132,332.875 355.5,339.5 Z"/></g>
<g><path style="opacity:0.149" fill="#fdf7b6" d="M 74.5,337.5 C 69.7529,339.424 65.4196,342.091 61.5,345.5C 64.3076,340.585 68.641,337.919 74.5,337.5 Z"/></g>
<g><path style="opacity:0.78" fill="#eacc30" d="M 287.5,336.5 C 279.039,340.364 270.039,342.531 260.5,343C 253.5,343.667 246.5,343.667 239.5,343C 233.902,342.933 228.569,342.099 223.5,340.5C 239.503,341.712 255.503,341.712 271.5,340.5C 271.5,339.5 271.5,338.5 271.5,337.5C 276.87,337.608 282.203,337.275 287.5,336.5 Z"/></g>
<g><path style="opacity:0.835" fill="#e9ca2f" d="M 120.5,342.5 C 111.543,346.49 102.543,350.49 93.5,354.5C 92.1667,354.833 90.8333,355.167 89.5,355.5C 89.9528,354.542 90.6195,353.708 91.5,353C 95.265,351.951 98.9317,350.618 102.5,349C 107.646,344.705 113.646,342.539 120.5,342.5 Z"/></g>
<g><path style="opacity:1" fill="#e7cf2e" d="M 356.5,339.5 C 363.489,343.828 369.489,349.162 374.5,355.5C 372.283,354.631 369.95,354.298 367.5,354.5C 367.649,353.448 367.483,352.448 367,351.5C 363.896,348.275 360.563,345.275 357,342.5C 356.517,341.552 356.351,340.552 356.5,339.5 Z"/></g>
<g><path style="opacity:1" fill="#edd83a" d="M 79.5,336.5 C 74.8919,339.438 70.0586,342.104 65,344.5C 64.8643,348.094 64.6976,351.594 64.5,355C 66.4018,357.786 69.0684,359.286 72.5,359.5C 75.1147,358.731 77.7814,358.397 80.5,358.5C 73.3928,363.284 67.2262,362.284 62,355.5C 61.5017,352.183 61.335,348.85 61.5,345.5C 65.4196,342.091 69.7529,339.424 74.5,337.5C 76.2161,337.371 77.8828,337.038 79.5,336.5 Z"/></g>
<g><path style="opacity:0.176" fill="#f5eb8d" d="M 61.5,345.5 C 61.335,348.85 61.5017,352.183 62,355.5C 67.2262,362.284 73.3928,363.284 80.5,358.5C 82.8453,355.925 85.8453,354.925 89.5,355.5C 90.8333,355.167 92.1667,354.833 93.5,354.5C 89.353,356.81 85.0197,358.976 80.5,361C 71.4311,365.42 64.5977,363.254 60,354.5C 59.0726,351.137 59.5726,348.137 61.5,345.5 Z"/></g>
<g><path style="opacity:1" fill="#fbd70d" d="M 194.5,391.5 C 190.171,394.446 187.004,398.446 185,403.5C 181.286,405.713 178.452,408.713 176.5,412.5C 172.873,414.794 169.539,417.46 166.5,420.5C 165.5,420.5 164.5,420.5 163.5,420.5C 160.582,421.454 157.582,422.121 154.5,422.5C 151.776,422.954 149.943,421.954 149,419.5C 146.842,420.677 145.342,420.01 144.5,417.5C 145.01,415.912 146.01,414.745 147.5,414C 147.043,413.586 146.709,413.086 146.5,412.5C 147.32,410.026 148.32,407.693 149.5,405.5C 151.264,403.879 153.264,402.546 155.5,401.5C 161.695,397.818 167.195,393.151 172,387.5C 173.122,385.593 173.955,383.593 174.5,381.5C 176.255,378.32 178.255,375.32 180.5,372.5C 184.424,368.336 188.091,363.836 191.5,359C 194.429,358.223 197.263,358.39 200,359.5C 201.606,362.832 203.106,366.165 204.5,369.5C 202.394,376.094 199.227,382.094 195,387.5C 194.51,388.793 194.343,390.127 194.5,391.5 Z"/></g>
<g><path style="opacity:1" fill="#eed230" d="M 335.5,351.5 C 339.18,352.675 342.513,354.508 345.5,357C 348.044,359.851 350.877,362.351 354,364.5C 357.872,364.705 360.205,366.705 361,370.5C 361.414,370.043 361.914,369.709 362.5,369.5C 363.333,370.5 364.167,371.5 365,372.5C 365.333,372.167 365.667,371.833 366,371.5C 367.117,372.949 367.784,374.616 368,376.5C 369.011,377.337 370.178,377.67 371.5,377.5C 371.756,384.018 374.59,389.018 380,392.5C 380.483,393.448 380.649,394.448 380.5,395.5C 379.167,394.5 377.833,393.5 376.5,392.5C 364.5,377.167 350.833,363.5 335.5,351.5 Z"/></g>
<g><path style="opacity:1" fill="#fcd608" d="M 282.5,381.5 C 282.577,393.71 283.244,405.877 284.5,418C 284.333,422.5 284.167,427 284,431.5C 282.119,435.307 280.953,439.307 280.5,443.5C 277.813,443.664 275.146,443.497 272.5,443C 271.781,440.444 270.114,439.277 267.5,439.5C 267.365,427.461 266.365,415.794 264.5,404.5C 264.414,395.481 263.08,386.648 260.5,378C 261.627,374.719 262.961,371.553 264.5,368.5C 275.816,364.762 281.816,369.095 282.5,381.5 Z"/></g>
<g><path style="opacity:0.969" fill="#e9d03c" d="M 196.5,390.5 C 195.833,390.833 195.167,391.167 194.5,391.5C 194.343,390.127 194.51,388.793 195,387.5C 199.227,382.094 202.394,376.094 204.5,369.5C 203.106,366.165 201.606,362.832 200,359.5C 197.263,358.39 194.429,358.223 191.5,359C 188.091,363.836 184.424,368.336 180.5,372.5C 182.048,368.402 183.881,364.402 186,360.5C 189.743,356.741 194.243,355.574 199.5,357C 201.848,357.346 203.681,358.513 205,360.5C 206.52,364.375 206.854,368.375 206,372.5C 203.667,377.833 201.333,383.167 199,388.5C 198.292,389.381 197.458,390.047 196.5,390.5 Z"/></g>
<g><path style="opacity:0.878" fill="#e6d44e" d="M 264.5,368.5 C 262.961,371.553 261.627,374.719 260.5,378C 263.08,386.648 264.414,395.481 264.5,404.5C 263.833,402.833 263.167,401.167 262.5,399.5C 262.5,399.167 262.5,398.833 262.5,398.5C 262.889,395.447 262.223,392.78 260.5,390.5C 257.973,383.697 258.14,377.03 261,370.5C 261.816,369.177 262.983,368.511 264.5,368.5 Z"/></g>
<g><path style="opacity:0.118" fill="#fdf4a1" d="M 164.5,392.5 C 162.431,395.573 159.764,397.906 156.5,399.5C 158.523,396.48 161.19,394.146 164.5,392.5 Z"/></g>
<g><path style="opacity:0.133" fill="#fdfbb0" d="M 260.5,390.5 C 262.223,392.78 262.889,395.447 262.5,398.5C 261.469,396.039 260.802,393.373 260.5,390.5 Z"/></g>
<g><path style="opacity:0.2" fill="#faef96" d="M 376.5,392.5 C 377.833,393.5 379.167,394.5 380.5,395.5C 382.201,400.263 384.868,404.263 388.5,407.5C 391.171,409.118 394.171,409.785 397.5,409.5C 393.405,410.989 389.405,410.489 385.5,408C 382.35,402.86 379.35,397.694 376.5,392.5 Z"/></g>
<g><path style="opacity:0.114" fill="#f4ea8c" d="M 397.5,381.5 C 403.668,387.518 406.168,394.852 405,403.5C 404.623,404.942 403.79,405.942 402.5,406.5C 403.038,404.883 403.371,403.216 403.5,401.5C 404.622,399.712 404.789,397.712 404,395.5C 401.018,391.202 398.851,386.536 397.5,381.5 Z"/></g>
<g><path style="opacity:0.89" fill="#efd857" d="M 174.5,381.5 C 173.955,383.593 173.122,385.593 172,387.5C 167.195,393.151 161.695,397.818 155.5,401.5C 155.833,400.833 156.167,400.167 156.5,399.5C 159.764,397.906 162.431,395.573 164.5,392.5C 167.144,388.215 170.478,384.549 174.5,381.5 Z"/></g>
<g><path style="opacity:0.153" fill="#fdf4a7" d="M 284.5,387.5 C 286.178,392.568 286.844,397.902 286.5,403.5C 285.043,398.402 284.376,393.069 284.5,387.5 Z"/></g>
<g><path style="opacity:0.176" fill="#f9f2a0" d="M 156.5,399.5 C 156.167,400.167 155.833,400.833 155.5,401.5C 153.264,402.546 151.264,403.879 149.5,405.5C 145.98,406.183 143.48,408.183 142,411.5C 141.19,415.69 141.69,419.69 143.5,423.5C 142.542,423.047 141.708,422.381 141,421.5C 139.241,414.991 140.741,409.491 145.5,405C 149.22,403.14 152.886,401.307 156.5,399.5 Z"/></g>
<g><path style="opacity:0.831" fill="#ecd655" d="M 403.5,401.5 C 403.371,403.216 403.038,404.883 402.5,406.5C 401.341,408.25 399.674,409.25 397.5,409.5C 394.171,409.785 391.171,409.118 388.5,407.5C 392.226,407.823 395.893,407.489 399.5,406.5C 401.093,404.946 402.426,403.279 403.5,401.5 Z"/></g>
<g><path style="opacity:0.141" fill="#f3e778" d="M 196.5,390.5 C 191.623,399.38 184.957,406.714 176.5,412.5C 178.452,408.713 181.286,405.713 185,403.5C 187.004,398.446 190.171,394.446 194.5,391.5C 195.167,391.167 195.833,390.833 196.5,390.5 Z"/></g>
<g><path style="opacity:1" fill="#f1d72f" d="M 149.5,405.5 C 148.32,407.693 147.32,410.026 146.5,412.5C 146.709,413.086 147.043,413.586 147.5,414C 146.01,414.745 145.01,415.912 144.5,417.5C 145.342,420.01 146.842,420.677 149,419.5C 149.943,421.954 151.776,422.954 154.5,422.5C 157.582,422.121 160.582,421.454 163.5,420.5C 157.591,425.921 150.925,426.921 143.5,423.5C 141.69,419.69 141.19,415.69 142,411.5C 143.48,408.183 145.98,406.183 149.5,405.5 Z"/></g>
<g><path style="opacity:0.008" fill="#fbf597" d="M 176.5,412.5 C 174.107,416.214 170.774,418.881 166.5,420.5C 169.539,417.46 172.873,414.794 176.5,412.5 Z"/></g>
<g><path style="opacity:0.162" fill="#fef8b3" d="M 262.5,399.5 C 263.167,401.167 263.833,402.833 264.5,404.5C 264.333,416.171 264.5,427.838 265,439.5C 265.791,440.745 266.291,442.078 266.5,443.5C 264.39,442.547 263.223,440.881 263,438.5C 262.5,425.504 262.333,412.504 262.5,399.5 Z"/></g>
<g><path style="opacity:0.02" fill="#f6eb8b" d="M 163.5,420.5 C 164.5,420.5 165.5,420.5 166.5,420.5C 161.378,426.055 155.044,428.221 147.5,427C 145.676,426.34 144.343,425.173 143.5,423.5C 150.925,426.921 157.591,425.921 163.5,420.5 Z"/></g>
<g><path style="opacity:1" fill="#efda49" d="M 282.5,381.5 C 283.458,383.302 284.125,385.302 284.5,387.5C 284.376,393.069 285.043,398.402 286.5,403.5C 287.754,414.981 287.754,426.314 286.5,437.5C 282.012,446.55 275.345,448.55 266.5,443.5C 266.291,442.078 265.791,440.745 265,439.5C 264.5,427.838 264.333,416.171 264.5,404.5C 266.365,415.794 267.365,427.461 267.5,439.5C 270.114,439.277 271.781,440.444 272.5,443C 275.146,443.497 277.813,443.664 280.5,443.5C 280.953,439.307 282.119,435.307 284,431.5C 284.167,427 284.333,422.5 284.5,418C 283.244,405.877 282.577,393.71 282.5,381.5 Z"/></g>
<g><path style="opacity:0.024" fill="#fcf8b8" d="M 286.5,437.5 C 284.544,445.988 279.211,449.155 270.5,447C 268.676,446.34 267.343,445.173 266.5,443.5C 275.345,448.55 282.012,446.55 286.5,437.5 Z"/></g>
</svg>
